<svg id="symbol-0" xmlns="http://www.w3.org/2000/svg" viewBox="0 0 550 343.75">
  <rect id="background" width="550" height="343.75" fill="none"/>
  <g id="tight-bounds">
    <g>
      <g>
        <path id="text-0" d="M125.76,230.87l-.11,5a79,79,0,0,0-9.44-.88,8.52,8.52,0,0,0-4,.68,2.38,2.38,0,0,0-1.13,2.19,2.15,2.15,0,0,0,1.24,2.1,28.31,28.31,0,0,0,5.85,1.4q4.6.8,6.53,2.51c1.29,1.14,1.94,3.17,1.94,6.07s-.93,5-2.78,6.4-4.58,2.05-8.15,2.05h0a49.6,49.6,0,0,1-8.5-.94h0l-1.71-.28.22-5a81.75,81.75,0,0,0,9.55.88,9,9,0,0,0,4.17-.71,2.54,2.54,0,0,0,1.24-2.38,2.38,2.38,0,0,0-1.18-2.29,24,24,0,0,0-5.69-1.38,15,15,0,0,1-6.6-2.34q-2.09-1.6-2.09-5.85a7.31,7.31,0,0,1,2.9-6.35,12.37,12.37,0,0,1,7.41-2.09h0a52.35,52.35,0,0,1,8.67.88h0Zm21.46-.66v5.13h-7.61v12.14a13,13,0,0,0,.49,4.47c.34.74,1.18,1.1,2.54,1.1h0l4.53-.16.27,4.8a32,32,0,0,1-5.62.72h0q-4.69,0-6.44-2.16t-1.73-8.11h0v-12.8h-3.53v-5.13h3.53v-8h6v8Zm6.43,3q2.83-3.58,9.46-3.59t9.46,3.59q2.85,3.59,2.85,10.76t-2.76,10.81q-2.76,3.64-9.55,3.65t-9.54-3.65q-2.76-3.63-2.76-10.81T153.65,233.19Zm4.5,17.93c.84,1.47,2.5,2.21,5,2.21s4.12-.74,5-2.21,1.27-3.88,1.27-7.23-.45-5.72-1.36-7.11-2.52-2.1-4.88-2.1-4,.7-4.88,2.1-1.35,3.77-1.35,7.11S157.3,249.65,158.15,251.12Zm33.54-21.52h0a36.43,36.43,0,0,1,6.89.78h0l1.38.27-.22,4.75c-2.9-.3-5.06-.45-6.45-.45h0q-4.2,0-5.63,1.88c-1,1.25-1.44,3.61-1.44,7.06s.46,5.85,1.38,7.18,2.84,2,5.74,2h0l6.46-.44.16,4.8a52.82,52.82,0,0,1-8.38,1h0q-6.3,0-8.86-3.4t-2.57-11.12q0-7.72,2.71-11T191.69,229.6Zm20.08,16.94V257.8h-6V218.73h6V241.3l3.42-.33,6.51-10.76h6.73l-7.94,12.91,8.39,14.68h-6.79l-6.73-11.64Zm52.91-15.67-.11,5a79,79,0,0,0-9.43-.88,8.6,8.6,0,0,0-4.06.68,2.39,2.39,0,0,0-1.14,2.19,2.16,2.16,0,0,0,1.25,2.1,27.94,27.94,0,0,0,5.85,1.4q4.6.8,6.53,2.51c1.29,1.14,1.93,3.17,1.93,6.07s-.92,5-2.78,6.4-4.56,2.05-8.13,2.05h0a49.81,49.81,0,0,1-8.51-.94h0l-1.7-.28.22-5a81.75,81.75,0,0,0,9.55.88,8.94,8.94,0,0,0,4.16-.71,2.53,2.53,0,0,0,1.25-2.38,2.36,2.36,0,0,0-1.2-2.29,23.62,23.62,0,0,0-5.68-1.38,15.13,15.13,0,0,1-6.6-2.34q-2.09-1.6-2.08-5.85a7.33,7.33,0,0,1,2.89-6.35,12.36,12.36,0,0,1,7.42-2.09h0a52.35,52.35,0,0,1,8.67.88h0Zm16.94-1.27h0a36.43,36.43,0,0,1,6.89.78h0l1.38.27-.22,4.75c-2.9-.3-5.06-.45-6.45-.45h0q-4.2,0-5.63,1.88c-1,1.25-1.44,3.61-1.44,7.06s.46,5.85,1.38,7.18,2.84,2,5.74,2h0l6.46-.44.16,4.8a52.82,52.82,0,0,1-8.38,1h0q-6.3,0-8.86-3.4t-2.57-11.12q0-7.72,2.71-11T281.62,229.6Zm20.08,28.2h-6V230.21h6v3.31A26.24,26.24,0,0,1,311,229.6h0v6a38.7,38.7,0,0,0-8.12,2.42h0l-1.21.5Zm33.33-5h0l1.54-.16.11,4.47a57.5,57.5,0,0,1-11.14,1.27h0q-6.14,0-8.81-3.37t-2.67-10.76h0q0-14.67,12-14.68h0q11.6,0,11.59,12.64h0l-.38,4.3H320.13c0,2.28.53,4,1.49,5s2.74,1.6,5.35,1.6S332.27,253.05,335,252.83Zm-14.95-10.92h11.64c0-2.72-.44-4.63-1.3-5.72s-2.33-1.62-4.39-1.62a5.51,5.51,0,0,0-4.5,1.71c-.93,1.14-1.42,3-1.45,5.63Zm43,10.92h0l1.54-.16.11,4.47a57.5,57.5,0,0,1-11.14,1.27h0q-6.12,0-8.81-3.37t-2.67-10.76h0q0-14.67,12-14.68h0q11.58,0,11.58,12.64h0l-.38,4.3H348.16c0,2.28.53,4,1.49,5s2.74,1.6,5.35,1.6S360.3,253.05,363.06,252.83Zm-14.95-10.92h11.64c0-2.72-.44-4.63-1.3-5.72s-2.32-1.62-4.38-1.62a5.53,5.53,0,0,0-4.51,1.71c-.93,1.14-1.42,3-1.45,5.63Zm29.34-5.52V257.8h-6V230.21h5.95v1.71A15.45,15.45,0,0,1,385,229.6h0q5.52,0,7.54,3.11t2,10.3h0V257.8h-6V243.18q0-4.47-1-6.35c-.65-1.25-2-1.88-3.95-1.88h0a13.61,13.61,0,0,0-5.41,1.11h0Zm43.76,16.44h0l1.54-.16.11,4.47a57.58,57.58,0,0,1-11.14,1.27h0q-6.14,0-8.8-3.37t-2.68-10.76h0q0-14.67,12-14.68h0q11.6,0,11.59,12.64h0l-.39,4.3h-17.1c0,2.28.53,4,1.49,5s2.74,1.6,5.35,1.6S418.45,253.05,421.21,252.83Zm-15-10.92H417.9q0-4.08-1.3-5.72c-.86-1.08-2.33-1.62-4.39-1.62a5.48,5.48,0,0,0-4.49,1.71q-1.41,1.71-1.47,5.63Zm29.36,15.89h-6V230.21h6v3.31a26.39,26.39,0,0,1,9.38-3.92h0v6a38.78,38.78,0,0,0-8.11,2.42h0l-1.21.5Z" transform="translate(0 -28.13)" fill="#085f63"/>
        <path id="text-1" d="M213.84,277.74V292H212V274.92h1.84Zm6-2.94,0,1.72-.62-.08a6.46,6.46,0,0,0-.65,0h0a4.6,4.6,0,0,0-2.72.78,5.1,5.1,0,0,0-1.68,2.11,8,8,0,0,0-.62,3h0l-.71.25a12.27,12.27,0,0,1,.62-4,6.31,6.31,0,0,1,1.91-2.85,5,5,0,0,1,3.27-1.05h0a5.81,5.81,0,0,1,.72.05,2.32,2.32,0,0,1,.52.14Zm9.54,17.49h0a7.27,7.27,0,0,1-3.95-1.08,7.52,7.52,0,0,1-2.71-3,9.18,9.18,0,0,1-1-4.33h0v-.68a9.72,9.72,0,0,1,1-4.57,7.76,7.76,0,0,1,2.68-3,6.63,6.63,0,0,1,3.6-1.06h0a6.55,6.55,0,0,1,3.68,1,6.19,6.19,0,0,1,2.29,2.77,9.69,9.69,0,0,1,.79,4h0v1.15H222.91V282h11v-.22a7.17,7.17,0,0,0-.57-2.7,5,5,0,0,0-1.61-2.06,4.45,4.45,0,0,0-2.68-.79h0a4.65,4.65,0,0,0-2.82.9,5.87,5.87,0,0,0-1.91,2.48,9.3,9.3,0,0,0-.67,3.66h0v.68a7.79,7.79,0,0,0,.73,3.42,6.22,6.22,0,0,0,2.05,2.45,5.31,5.31,0,0,0,3,.91h0a6.17,6.17,0,0,0,2.68-.56,5.89,5.89,0,0,0,2.1-1.77h0l1.19.89a6.82,6.82,0,0,1-6,3ZM246,274.92v1.55h-8.55v-1.55Zm-5.43-4.37h1.89v17.28a4,4,0,0,0,.31,1.79,1.67,1.67,0,0,0,.83.81,3.07,3.07,0,0,0,1.1.2h0a6.73,6.73,0,0,0,.8-.05l.71-.1h0l.07,1.56a5.5,5.5,0,0,1-.89.18,8.27,8.27,0,0,1-1.11.07h0a4.37,4.37,0,0,1-1.92-.4A2.87,2.87,0,0,1,241,290.5a6.23,6.23,0,0,1-.48-2.69h0Zm11.23-2.78V292h-1.89v-24.2Zm-.41,14.61-.85-.47a9,9,0,0,1,1-3.66,7,7,0,0,1,2.36-2.65,6.06,6.06,0,0,1,3.44-1h0a6.25,6.25,0,0,1,2.93.63,4.22,4.22,0,0,1,1.87,2,8.64,8.64,0,0,1,.65,3.63h0V292h-1.89v-11.1a6.58,6.58,0,0,0-.48-2.78,2.93,2.93,0,0,0-1.39-1.43,4.85,4.85,0,0,0-2.13-.43h0a4.59,4.59,0,0,0-2.37.6,5.4,5.4,0,0,0-1.7,1.52,7.43,7.43,0,0,0-1.05,2,6.75,6.75,0,0,0-.38,2Zm18.34-7.46V292h-1.88V274.92ZM267.48,270h0a1.29,1.29,0,0,1,.34-.9,1.21,1.21,0,0,1,.94-.38h0a1.25,1.25,0,0,1,1.31,1.28h0a1.25,1.25,0,0,1-.35.89,1.27,1.27,0,0,1-1,.36h0a1.24,1.24,0,0,1-.94-.36A1.28,1.28,0,0,1,267.48,270Zm9.23,8.57V292h-1.89V274.92h1.82Zm-.4,3.82-.86-.47a9.05,9.05,0,0,1,1-3.66,7.1,7.1,0,0,1,2.35-2.65,6.06,6.06,0,0,1,3.44-1h0a6.25,6.25,0,0,1,2.93.63,4.24,4.24,0,0,1,1.88,2,8.64,8.64,0,0,1,.65,3.63h0V292h-1.89v-11.1a6.57,6.57,0,0,0-.49-2.78,2.93,2.93,0,0,0-1.39-1.43,4.83,4.83,0,0,0-2.12-.43h0a4.6,4.6,0,0,0-2.38.6,5.62,5.62,0,0,0-1.7,1.52,8,8,0,0,0-1.05,2,6.72,6.72,0,0,0-.37,2Zm18.15-14.61V292h-1.88v-24.2Zm10.7,7.15-8,7.9-3.41,3.27-.28-1.82,2.74-2.93,6.51-6.42ZM303.52,292l-7.13-8.87,1-1.61L305.78,292Zm11.46.32h0a7.26,7.26,0,0,1-3.94-1.08,7.62,7.62,0,0,1-2.72-3,9.3,9.3,0,0,1-1-4.33h0v-.68a9.72,9.72,0,0,1,1-4.57,7.76,7.76,0,0,1,2.68-3,6.63,6.63,0,0,1,3.6-1.06h0a6.57,6.57,0,0,1,3.68,1,6.28,6.28,0,0,1,2.3,2.77,9.86,9.86,0,0,1,.78,4h0v1.15H308.49V282h11v-.22a7.17,7.17,0,0,0-.58-2.7,5,5,0,0,0-1.62-2.06,4.4,4.4,0,0,0-2.67-.79h0a4.65,4.65,0,0,0-2.82.9,5.79,5.79,0,0,0-1.91,2.48,9.3,9.3,0,0,0-.68,3.66h0v.68a7.94,7.94,0,0,0,.73,3.42,6.25,6.25,0,0,0,2.06,2.45,5.29,5.29,0,0,0,3,.91h0a6.17,6.17,0,0,0,2.68-.56,5.89,5.89,0,0,0,2.1-1.77h0l1.19.89a6.82,6.82,0,0,1-6,3Zm21.18-3.63V267.77h1.89V292h-1.77Zm-11.84-5v-.33a12,12,0,0,1,.81-4.6,6.73,6.73,0,0,1,2.28-3,5.88,5.88,0,0,1,3.5-1.06h0a6.27,6.27,0,0,1,3.37.86,6.21,6.21,0,0,1,2.22,2.4,10.57,10.57,0,0,1,1.12,3.6h0v4.26a9.32,9.32,0,0,1-1.07,3.38,6.16,6.16,0,0,1-2.23,2.33,6.5,6.5,0,0,1-3.44.85h0a5.7,5.7,0,0,1-3.49-1.1,7.08,7.08,0,0,1-2.27-3.06,11.87,11.87,0,0,1-.8-4.51Zm1.89-.33v.33a11,11,0,0,0,.54,3.57,5.51,5.51,0,0,0,1.65,2.52,4.2,4.2,0,0,0,2.83.94h0A5.39,5.39,0,0,0,334,290a4.84,4.84,0,0,0,1.77-1.65,7.45,7.45,0,0,0,1-2.28h0v-4.91a11.42,11.42,0,0,0-.55-1.69,5.87,5.87,0,0,0-1-1.59,4.75,4.75,0,0,0-1.57-1.2,5.41,5.41,0,0,0-2.31-.45h0a4.29,4.29,0,0,0-2.85.93,5.45,5.45,0,0,0-1.66,2.52,11.23,11.23,0,0,0-.54,3.59Z" transform="translate(0 -28.13)" fill="#49beb7"/>
      </g>
      <g id="icon-0">
        <path d="M254.67,209.37a30.51,30.51,0,0,1-30.5-30.5V138.21a30.5,30.5,0,0,1,30.5-30.5h40.66a30.5,30.5,0,0,1,30.5,30.5v40.66a30.51,30.51,0,0,1-30.5,30.5Z" transform="translate(0 -28.13)" fill="#49beb7"/>
        <g>
          <path d="M274.4,161.1" transform="translate(0 -28.13)" fill="#fff"/>
          <path d="M275.12,169.37h-.07a18.63,18.63,0,0,1-4.87-.56c-2.27-.63-2.74-1.69-2.74-2.47,0-2.6.26-4.59,1.52-5.87s2.89-1.6,6.09-1.6,5,.46,6.1,1.6c1.27,1.28,1.53,3.27,1.53,5.87C282.68,169.15,276.89,169.37,275.12,169.37Zm-.07-8.64c-2.62,0-4,.32-4.76,1.05s-1,2-1,4.56c.16.41,2.2,1.16,5.69,1.16h.13c3.5,0,5.54-.75,5.7-1.17,0-2.52-.29-3.84-1-4.55S277.67,160.73,275.05,160.73Z" transform="translate(0 -28.13)" fill="#fff"/>
          <g>
            <path d="M273.64,163.58A1.63,1.63,0,1,0,272,165.2,1.62,1.62,0,0,0,273.64,163.58Z" transform="translate(0 -28.13)" fill="#fff"/>
            <path d="M279.72,163.58a1.63,1.63,0,1,0-1.63,1.62A1.63,1.63,0,0,0,279.72,163.58Z" transform="translate(0 -28.13)" fill="#fff"/>
          </g>
          <path d="M284.87,143.86a.94.94,0,0,0-1.29.3c-3.31,5.34-5.23,5.69-5.87,5.62-1.17-.15-1.76-1.91-1.76-1.93s0,0,0,0a1.13,1.13,0,0,0-.25-.29c-.07-.08-.12-.18-.22-.23s0,0,0,0-.21,0-.32,0-.21-.07-.32,0,0,0,0,0-.15.13-.23.19a1,1,0,0,0-.29.28s0,0,0,0-.76,1.72-2.1,1.81c-.81,0-2.79-.57-5.67-5.4a.94.94,0,0,0-1.28-.33.93.93,0,0,0-.32,1.28,22.76,22.76,0,0,0,2.78,3.78,2.68,2.68,0,0,0-2.28,2.62,2.71,2.71,0,1,0,5.42,0,2.57,2.57,0,0,0-.08-.38,4.21,4.21,0,0,0,1.31.3h.26A4,4,0,0,0,275,150a3.7,3.7,0,0,0,2.51,1.66,2.86,2.86,0,0,0,.42,0,4.15,4.15,0,0,0,1.53-.36,1.89,1.89,0,0,0-.05.23,2.71,2.71,0,1,0,5.42,0,2.68,2.68,0,0,0-2.4-2.64,26.7,26.7,0,0,0,2.78-3.74A1,1,0,0,0,284.87,143.86ZM268,152.38a.85.85,0,1,1,.85-.85A.85.85,0,0,1,268,152.38Zm14.89-.85a.85.85,0,1,1-.84-.84A.85.85,0,0,1,282.92,151.53Z" transform="translate(0 -28.13)" fill="#fff"/>
          <path d="M311.41,129.5a1.78,1.78,0,0,0-1.85-1.45,1.86,1.86,0,0,0-1.8,1.5,9.1,9.1,0,0,1-4.36,6.53c-6.69,3.91-18.32.11-18.44.08s-.13,0-.19,0a24.73,24.73,0,0,0-19.39,0,2,2,0,0,0-.34,0c-.12,0-11.75,3.83-18.44-.08a9.1,9.1,0,0,1-4.36-6.53,1.86,1.86,0,0,0-1.8-1.5,1.67,1.67,0,0,0-1.85,1.45c-1.15,5.08-.46,9.37,2,12.74,3.06,4.11,8,5.74,11.06,6.38l-7.26,4.16a1.86,1.86,0,0,0-.85,2.17c.67,2.12,2.81,3.48,5.47,3.48a9.43,9.43,0,0,0,3.31-.73,18,18,0,0,0,8.38,13.2,78.45,78.45,0,0,0-5.88,17.31l3.63.83a74.62,74.62,0,0,1,5.57-16.46,28.77,28.77,0,0,0,11,2.08A28.27,28.27,0,0,0,286,172.54a72.94,72.94,0,0,1,5.65,16.14l3.62-.86a76.2,76.2,0,0,0-6-17,18.25,18.25,0,0,0,8.44-13.1,9.23,9.23,0,0,0,3.22.69c2.65,0,4.79-1.36,5.46-3.48a1.86,1.86,0,0,0-.85-2.17l-7.26-4.16c3.06-.64,8-2.27,11.06-6.38C311.87,138.87,312.56,134.58,311.41,129.5ZM243.63,140a8.88,8.88,0,0,1-1.31-2.54,12.2,12.2,0,0,0,2.41,1.82c3.87,2.26,8.78,2.49,12.93,2.11a20.11,20.11,0,0,0-3,3.94h-.06C254.57,145.33,247.16,144.77,243.63,140Zm8.19,13.73,0,.19a5,5,0,0,1-3.17.74l3.35-1.92C251.91,153.12,251.87,153.45,251.82,153.75Zm23.23,17.18c-11.87,0-19.24-6.24-19.24-16.28,0-9.26,8.63-16.78,19.25-16.78s19.24,7.52,19.24,16.78C294.3,164.54,286.75,170.93,275.05,170.93Zm23.16-17,0-.19c-.05-.3-.09-.63-.15-1l3.35,1.92A5,5,0,0,1,298.21,153.94ZM306.38,140c-3.44,4.63-10.63,5.29-11,5.32a21,21,0,0,0-2.94-3.91c4.12.37,9,.11,12.8-2.12a12.55,12.55,0,0,0,2.41-1.81A8.87,8.87,0,0,1,306.38,140Z" transform="translate(0 -28.13)" fill="#fff"/>
        </g>
      </g>
    </g>
  </g>
</svg>
