<svg viewBox="0 0 640 400" data-background-color="#ffffff" preserveAspectRatio="xMidYMid meet" height="400" width="550" x="0" y="-27.5"><rect width="640" height="400" x="0" y="0" opacity="1" fill="#ffffff" data-fill-palette-color="background" id="background"></rect><g id="tight-bounds" transform="matrix(1,0,0,1,122.24000000000001,168.54620351871182)"><svg viewBox="0 0 395.52 62.90759296257637" height="62.90759296257637" width="395.52"><g><svg viewBox="0 0 478.4696931657329 76.10077038480668" height="62.90759296257637" width="395.52"><g transform="matrix(1,0,0,1,82.94969316573295,10.517544966351721)"><svg viewBox="0 0 395.52 55.06568045210324" height="55.06568045210324" width="395.52"><g><svg viewBox="0 0 395.52 55.06568045210324" height="55.06568045210324" width="395.52"><g><svg viewBox="0 0 395.52 29.699796800186853" height="29.699796800186853" width="395.52"><g transform="matrix(1,0,0,1,0,0)"><svg width="395.52" viewBox="3 -31.65 428.12 32.15" height="29.699796800186853" data-palette-color="#1c4b82"><path d="M28.2 0L9.65 0Q6.25 0 4.65-0.3 3.05-0.6 3.05-1L3.05-1 6.05-7.45Q7.2-7.25 10.8-7.08 14.4-6.9 20.15-6.9L20.15-6.9 24.1-6.9Q25.85-6.9 26.45-7.4 27.05-7.9 27.05-8.85L27.05-8.85 27.05-9.35Q27.05-10.55 26.45-11 25.85-11.45 24.1-11.45L24.1-11.45 12.65-11.45Q7.6-11.45 5.3-13.33 3-15.2 3-19.45L3-19.45 3-21.25Q3-23.45 3.83-25.3 4.65-27.15 6.65-28.28 8.65-29.4 12.15-29.4L12.15-29.4 28.75-29.4Q31.8-29.4 33.83-29.05 35.85-28.7 35.85-28.3L35.85-28.3 34.35-22.1Q32.95-22.25 29.08-22.43 25.2-22.6 19.25-22.6L19.25-22.6 15.65-22.65Q14.1-22.65 13.45-22.23 12.8-21.8 12.75-20.65L12.75-20.65 12.75-20.3Q12.75-19.15 13.45-18.7 14.15-18.25 15.7-18.25L15.7-18.25 26.7-18.25Q29.9-18.25 32.15-17.6 34.4-16.95 35.6-15.23 36.8-13.5 36.8-10.15L36.8-10.15 36.8-8.35Q36.8-4.6 34.88-2.3 32.95 0 28.2 0L28.2 0ZM52.6 0L49.5 0Q45.7 0 44.3-1.6 42.9-3.2 42.9-6.4L42.9-6.4 42.9-16.1 38.8-16.1 38.8-22.4 40.9-22.4Q41.75-22.4 42.27-22.73 42.8-23.05 42.95-23.9L42.95-23.9 43.9-29.25 52.1-29.25 52.1-22.4 60.45-22.4 60.45-16.1 52.1-16.1 52.1-8.35Q52.1-7.1 52.7-6.7 53.3-6.3 54.5-6.3L54.5-6.3 59.5-6.3 60.5-0.5Q59.45-0.35 57.3-0.18 55.15 0 52.6 0L52.6 0ZM85.55 0L71.65 0Q68.35 0 66.7-0.95 65.05-1.9 64.52-3.58 64-5.25 64-7.45L64-7.45 64-15Q64-17.1 64.55-18.78 65.1-20.45 66.72-21.43 68.35-22.4 71.65-22.4L71.65-22.4 85.55-22.4Q88.85-22.4 90.47-21.43 92.1-20.45 92.62-18.78 93.15-17.1 93.15-15L93.15-15 93.15-7.45Q93.15-5.25 92.62-3.58 92.1-1.9 90.47-0.95 88.85 0 85.55 0L85.55 0ZM75.65-6.3L75.65-6.3 81.6-6.3Q84-6.3 83.95-8.3L83.95-8.3 83.95-14.1Q83.95-15.1 83.42-15.6 82.9-16.1 81.6-16.1L81.6-16.1 75.7-16.1Q74.4-16.1 73.85-15.6 73.3-15.1 73.3-14.1L73.3-14.1 73.3-8.3Q73.25-6.3 75.65-6.3ZM115.79 0L106.29 0Q102.99 0 101.22-0.95 99.44-1.9 98.79-3.58 98.14-5.25 98.14-7.45L98.14-7.45 98.14-15Q98.14-17 98.82-18.68 99.49-20.35 101.24-21.38 102.99-22.4 106.29-22.4L106.29-22.4 112.69-22.4Q118.44-22.4 121.14-21.9 123.84-21.4 124.19-20.9L124.19-20.9 122.69-15.6Q121.64-15.7 118.89-15.9 116.14-16.1 112.84-16.1L112.84-16.1 109.79-16.1Q108.49-16.1 107.94-15.6 107.39-15.1 107.39-14.1L107.39-14.1 107.39-8.3Q107.39-7.3 107.89-6.8 108.39-6.3 109.79-6.3L109.79-6.3 112.34-6.3Q116.04-6.3 118.72-6.48 121.39-6.65 122.64-6.8L122.64-6.8 125.64-2.05Q125.64-1.35 123.17-0.68 120.69 0 115.79 0L115.79 0ZM155.09 0.5L155.09 0.5Q152.64 0.5 150.82 0 148.99-0.5 147.34-2.15L147.34-2.15Q146.34-3.15 145.34-4.15 144.34-5.15 143.34-6.15L143.34-6.15Q142.54-7 142.04-7.48 141.54-7.95 141.07-8.13 140.59-8.3 139.74-8.3L139.74-8.3Q138.64-8.3 138.44-8.1 138.24-7.9 138.24-6.75L138.24-6.75 138.24 0 129.14 0 129.14-31.65 138.24-31.65 138.24-14.7 139.84-14.7Q140.69-14.7 141.44-15.4L141.44-15.4Q141.89-15.85 142.82-17.05 143.74-18.25 144.84-19.7 145.94-21.15 146.84-22.35L146.84-22.35 157.34-22.35 156.54-20.8Q155.34-19.3 153.77-17.5 152.19-15.7 150.72-14.2 149.24-12.7 148.34-12.1L148.34-12.1Q150.29-10.8 151.99-9.33 153.69-7.85 156.34-6.7L156.34-6.7Q158.09-5.95 159.32-5.73 160.54-5.5 161.04-5.5L161.04-5.5 159.64 0Q159.14 0.15 157.97 0.33 156.79 0.5 155.09 0.5ZM200.24 0L181.69 0Q178.29 0 176.69-0.3 175.09-0.6 175.09-1L175.09-1 178.09-7.45Q179.24-7.25 182.84-7.08 186.44-6.9 192.19-6.9L192.19-6.9 196.14-6.9Q197.89-6.9 198.49-7.4 199.09-7.9 199.09-8.85L199.09-8.85 199.09-9.35Q199.09-10.55 198.49-11 197.89-11.45 196.14-11.45L196.14-11.45 184.69-11.45Q179.64-11.45 177.34-13.33 175.04-15.2 175.04-19.45L175.04-19.45 175.04-21.25Q175.04-23.45 175.86-25.3 176.69-27.15 178.69-28.28 180.69-29.4 184.19-29.4L184.19-29.4 200.79-29.4Q203.84-29.4 205.86-29.05 207.89-28.7 207.89-28.3L207.89-28.3 206.39-22.1Q204.99-22.25 201.11-22.43 197.24-22.6 191.29-22.6L191.29-22.6 187.69-22.65Q186.14-22.65 185.49-22.23 184.84-21.8 184.79-20.65L184.79-20.65 184.79-20.3Q184.79-19.15 185.49-18.7 186.19-18.25 187.74-18.25L187.74-18.25 198.74-18.25Q201.94-18.25 204.19-17.6 206.44-16.95 207.64-15.23 208.84-13.5 208.84-10.15L208.84-10.15 208.84-8.35Q208.84-4.6 206.91-2.3 204.99 0 200.24 0L200.24 0ZM231.98 0L222.48 0Q219.18 0 217.41-0.95 215.63-1.9 214.98-3.58 214.33-5.25 214.33-7.45L214.33-7.45 214.33-15Q214.33-17 215.01-18.68 215.68-20.35 217.43-21.38 219.18-22.4 222.48-22.4L222.48-22.4 228.88-22.4Q234.63-22.4 237.33-21.9 240.03-21.4 240.38-20.9L240.38-20.9 238.88-15.6Q237.83-15.7 235.08-15.9 232.33-16.1 229.03-16.1L229.03-16.1 225.98-16.1Q224.68-16.1 224.13-15.6 223.58-15.1 223.58-14.1L223.58-14.1 223.58-8.3Q223.58-7.3 224.08-6.8 224.58-6.3 225.98-6.3L225.98-6.3 228.53-6.3Q232.23-6.3 234.91-6.48 237.58-6.65 238.83-6.8L238.83-6.8 241.83-2.05Q241.83-1.35 239.36-0.68 236.88 0 231.98 0L231.98 0ZM254.43 0L245.33 0 245.33-22.4 252.43-22.4 254.33-21.4Q256.63-22.9 260.43-22.9L260.43-22.9Q262.93-22.9 264.83-22.38 266.73-21.85 267.91-21.25 269.08-20.65 269.38-20.4L269.38-20.4 266.88-13.9Q266.38-14.25 265.01-14.85 263.63-15.45 261.78-15.98 259.93-16.5 257.88-16.5L257.88-16.5 257.33-16.5Q255.93-16.5 255.18-16.03 254.43-15.55 254.43-13.95L254.43-13.95 254.43 0ZM291.18 0L280.53 0Q277.23 0 275.45-0.95 273.68-1.9 273.03-3.58 272.38-5.25 272.38-7.45L272.38-7.45 272.38-15Q272.38-17 273.05-18.68 273.73-20.35 275.48-21.38 277.23-22.4 280.53-22.4L280.53-22.4 290.88-22.4Q294.78-22.4 296.85-21.48 298.93-20.55 299.7-18.88 300.48-17.2 300.48-15L300.48-15 300.48-8.6 291.73-8.6Q287.23-8.6 284.9-8.8 282.58-9 281.63-9.05L281.63-9.05 281.63-8.3Q281.58-6.3 284.03-6.3L284.03-6.3 285.58-6.3Q289.58-6.3 292.98-6.48 296.38-6.65 298.03-6.8L298.03-6.8 301.03-2.05Q301.03-1.55 300.18-1.1 299.33-0.65 297.2-0.33 295.08 0 291.18 0L291.18 0ZM281.63-14.1L281.63-13.4 291.23-13.4 291.23-14.1Q291.23-15.1 291.05-15.5 290.88-15.9 289.98-16 289.08-16.1 286.93-16.1L286.93-16.1 284.03-16.1Q281.63-16.1 281.63-14.1L281.63-14.1ZM324.33 0L313.68 0Q310.38 0 308.6-0.95 306.83-1.9 306.18-3.58 305.53-5.25 305.53-7.45L305.53-7.45 305.53-15Q305.53-17 306.2-18.68 306.88-20.35 308.63-21.38 310.38-22.4 313.68-22.4L313.68-22.4 324.03-22.4Q327.93-22.4 330-21.48 332.08-20.55 332.85-18.88 333.63-17.2 333.63-15L333.63-15 333.63-8.6 324.88-8.6Q320.38-8.6 318.05-8.8 315.73-9 314.78-9.05L314.78-9.05 314.78-8.3Q314.73-6.3 317.18-6.3L317.18-6.3 318.73-6.3Q322.73-6.3 326.13-6.48 329.53-6.65 331.18-6.8L331.18-6.8 334.18-2.05Q334.18-1.55 333.33-1.1 332.48-0.65 330.35-0.33 328.23 0 324.33 0L324.33 0ZM314.78-14.1L314.78-13.4 324.38-13.4 324.38-14.1Q324.38-15.1 324.2-15.5 324.03-15.9 323.13-16 322.23-16.1 320.08-16.1L320.08-16.1 317.18-16.1Q314.78-16.1 314.78-14.1L314.78-14.1ZM348.42 0L339.17 0 339.17-22.4 346.42-22.4 348.42-21.4Q350.52-21.8 353.5-22.1 356.47-22.4 359.07-22.4L359.07-22.4 361.57-22.4Q364.07-22.4 365.42-21.7 366.77-21 367.35-19.95 367.92-18.9 368.05-17.82 368.17-16.75 368.17-16L368.17-16 368.17 0 359.02 0 359.02-14.1Q359.02-16.1 356.62-16.1L356.62-16.1 349.92-16.1Q348.97-16.1 348.7-15.93 348.42-15.75 348.42-15L348.42-15 348.42 0ZM392.22 0L381.57 0Q378.27 0 376.5-0.95 374.72-1.9 374.07-3.58 373.42-5.25 373.42-7.45L373.42-7.45 373.42-15Q373.42-17 374.1-18.68 374.77-20.35 376.52-21.38 378.27-22.4 381.57-22.4L381.57-22.4 391.92-22.4Q395.82-22.4 397.9-21.48 399.97-20.55 400.75-18.88 401.52-17.2 401.52-15L401.52-15 401.52-8.6 392.77-8.6Q388.27-8.6 385.94-8.8 383.62-9 382.67-9.05L382.67-9.05 382.67-8.3Q382.62-6.3 385.07-6.3L385.07-6.3 386.62-6.3Q390.62-6.3 394.02-6.48 397.42-6.65 399.07-6.8L399.07-6.8 402.07-2.05Q402.07-1.55 401.22-1.1 400.37-0.65 398.25-0.33 396.12 0 392.22 0L392.22 0ZM382.67-14.1L382.67-13.4 392.27-13.4 392.27-14.1Q392.27-15.1 392.1-15.5 391.92-15.9 391.02-16 390.12-16.1 387.97-16.1L387.97-16.1 385.07-16.1Q382.67-16.1 382.67-14.1L382.67-14.1ZM416.17 0L407.07 0 407.07-22.4 414.17-22.4 416.07-21.4Q418.37-22.9 422.17-22.9L422.17-22.9Q424.67-22.9 426.57-22.38 428.47-21.85 429.64-21.25 430.82-20.65 431.12-20.4L431.12-20.4 428.62-13.9Q428.12-14.25 426.74-14.85 425.37-15.45 423.52-15.98 421.67-16.5 419.62-16.5L419.62-16.5 419.07-16.5Q417.67-16.5 416.92-16.03 416.17-15.55 416.17-13.95L416.17-13.95 416.17 0Z" opacity="1" transform="matrix(1,0,0,1,0,0)" fill="#1c4b82" class="undefined-text-0" data-fill-palette-color="primary" id="text-0"></path></svg></g></svg></g><g transform="matrix(1,0,0,1,0,36.711206029587764)"><svg viewBox="0 0 105.15383406142115 18.354474422515477" height="18.354474422515477" width="105.15383406142115"><g transform="matrix(1,0,0,1,0,0)"><svg width="105.15383406142115" viewBox="3.45 -31.38 182.39000000000001 31.84" height="18.354474422515477" data-palette-color="#1c4b82"><path d="M6.9-20.11L6.9-18.16Q8.28-22.24 12.93-22.24L12.93-22.24Q13.79-22.24 14.22-21.75 14.66-21.26 14.66-20.72 14.66-20.17 14.22-19.68 13.79-19.2 12.64-19.2 11.49-19.2 10.34-18.74 9.2-18.28 8.45-17.41L8.45-17.41Q6.9-15.52 6.9-12.41L6.9-12.41 6.9-1.61Q6.9-0.8 6.32-0.4 5.75 0 5.29 0 4.83 0 4.54-0.09 4.25-0.17 3.97-0.46L3.97-0.46Q3.45-0.8 3.45-1.61L3.45-1.61 3.45-20.11Q3.45-20.86 3.97-21.35 4.48-21.84 5.26-21.84 6.03-21.84 6.47-21.35 6.9-20.86 6.9-20.11L6.9-20.11ZM38.39-11.55L38.39-11.55Q38.39-10.34 37.01-10.23L37.01-10.23 21.26-10.23Q21.49-4.37 25.86-2.64L25.86-2.64Q27.07-2.24 28.62-2.24L28.62-2.24Q31.84-2.24 35.17-4.6L35.17-4.6Q36.2-5.17 36.89-4.48L36.89-4.48Q37.24-4.14 37.12-3.79L37.12-3.79Q37.12-2.99 36.72-2.64L36.72-2.64Q33.56 0.52 28.39 0.46L28.39 0.46Q23.68 0.46 20.8-2.59L20.8-2.59Q17.58-5.75 17.58-10.92L17.58-10.92Q17.58-15.69 20.23-18.79L20.23-18.79Q22.99-22.24 28.04-22.24L28.04-22.24Q33.1-22.24 35.74-19.2L35.74-19.2Q38.27-16.44 38.39-11.55ZM21.38-12.59L35-12.59Q34.83-15.69 32.99-17.7L32.99-17.7Q31.26-19.54 28.04-19.54L28.04-19.54Q25.28-19.54 23.33-17.47L23.33-17.47Q21.55-15.4 21.38-12.59L21.38-12.59ZM55.28-1.26L55.28-1.26Q55.28 0.46 51.2 0.46L51.2 0.46Q48.16 0.46 46.89-1.21L46.89-1.21Q45.51-2.99 45.4-7.07L45.4-7.07 45.4-19.14 42.87-19.14Q42.18-19.14 41.78-19.57 41.37-20 41.37-20.46L41.37-20.46Q41.37-20.92 41.72-21.38 42.06-21.84 42.87-21.84L42.87-21.84 45.63-21.84 45.86-28.05Q45.97-28.74 46.49-29.11 47.01-29.48 47.58-29.48 48.16-29.48 48.56-29.14 48.96-28.79 48.96-28.05L48.96-28.05 48.96-21.84 52.93-21.84Q53.62-21.84 53.99-21.38 54.36-20.92 54.36-20.46L54.36-20.46Q54.36-19.89 53.99-19.51 53.62-19.14 52.93-19.14L52.93-19.14 48.96-19.14 48.96-8.97Q48.96-4.71 49.25-3.82 49.54-2.93 50.17-2.59 50.8-2.24 51.72-2.24L51.72-2.24 53.96-2.41Q54.59-2.41 54.94-2.01 55.28-1.61 55.28-1.26ZM74.25-1.61L74.25-14.14Q74.25-16.78 72.75-18.28L72.75-18.28Q71.43-19.54 69.68-19.54 67.92-19.54 66.72-19.14 65.51-18.74 64.59-17.82L64.59-17.82Q62.64-15.98 62.64-12.59L62.64-12.59 62.64-1.61Q62.64-0.8 62.06-0.4 61.49 0 60.8 0L60.8 0Q60.11 0 59.65-0.43 59.19-0.86 59.19-1.61L59.19-1.61 59.19-29.66Q59.19-30.46 59.76-30.86 60.34-31.26 60.91-31.26L60.91-31.26Q61.6-31.26 62.12-30.89 62.64-30.52 62.64-29.66L62.64-29.66 62.64-18.1Q63.44-20.11 65.62-21.21L65.62-21.21Q67.64-22.24 69.62-22.24 71.6-22.24 72.98-21.75 74.36-21.26 75.51-20.34L75.51-20.34Q77.81-18.16 77.81-13.91L77.81-13.91 77.81-1.61Q77.81-0.8 77.21-0.4 76.6 0 75.97 0L75.97 0Q75.28 0 74.76-0.43 74.25-0.86 74.25-1.61L74.25-1.61ZM88.67-29.43L88.67-29.43Q88.67-28.51 88.04-27.93 87.4-27.36 86.25-27.36 85.1-27.36 84.47-27.93 83.84-28.51 83.84-29.43L83.84-29.43Q83.84-30.23 84.47-30.8 85.1-31.38 86.28-31.38 87.46-31.38 88.06-30.8 88.67-30.23 88.67-29.43ZM84.53-1.72L84.53-20Q84.53-20.86 85.1-21.35 85.68-21.84 86.14-21.84 86.6-21.84 86.89-21.7 87.17-21.55 87.46-21.26L87.46-21.26Q88.09-20.86 88.09-20L88.09-20 88.09-1.72Q88.09-0.86 87.52-0.43 86.94 0 86.25 0L86.25 0Q85.56 0 85.05-0.43 84.53-0.86 84.53-1.72L84.53-1.72ZM94.87-1.61L94.87-20.17Q94.87-20.92 95.45-21.38 96.02-21.84 96.6-21.84L96.6-21.84Q97.8-21.84 98.15-20.92 98.49-20 98.32-18.16L98.32-18.16Q99.01-19.89 101.31-21.15L101.31-21.15Q103.32-22.24 105.3-22.24 107.29-22.24 108.67-21.75 110.04-21.26 111.19-20.23L111.19-20.23Q113.49-18.05 113.49-13.79L113.49-13.79 113.49-1.61Q113.49-0.8 112.89-0.4 112.29 0 111.65 0L111.65 0Q110.96 0 110.45-0.43 109.93-0.86 109.93-1.61L109.93-1.61 109.93-14.02Q109.93-16.72 108.44-18.16L108.44-18.16Q107.06-19.54 104.99-19.54L104.99-19.54Q102.23-19.54 100.27-17.93L100.27-17.93Q98.32-16.21 98.32-12.64L98.32-12.64 98.32-1.61Q98.32-0.8 97.75-0.4 97.17 0 96.48 0L96.48 0Q95.79 0 95.33-0.43 94.87-0.86 94.87-1.61L94.87-1.61ZM134.7-0.57L123.89-11.72 123.89-1.72Q123.89-0.86 123.35-0.43 122.8 0 122.14 0 121.48 0 120.96-0.43 120.44-0.86 120.44-1.72L120.44-1.72 120.44-29.54Q120.44-30.46 120.96-30.86 121.48-31.26 122-31.26 122.51-31.26 122.83-31.21 123.15-31.15 123.43-30.86L123.43-30.86Q123.89-30.46 123.89-29.54L123.89-29.54 123.89-12.93 133.84-21.26Q134.35-21.84 134.93-21.84L134.93-21.84Q135.56-21.84 136.05-21.38 136.54-20.92 136.54-20.52L136.54-20.52Q136.54-19.77 136.08-19.43L136.08-19.43 127.57-12.3 137.23-2.53Q137.57-2.18 137.57-1.7 137.57-1.21 137.43-0.95 137.28-0.69 137-0.46L137-0.46Q136.42 0 135.85 0 135.27 0 134.7-0.57L134.7-0.57ZM161.36-11.55L161.36-11.55Q161.36-10.34 159.98-10.23L159.98-10.23 144.24-10.23Q144.47-4.37 148.83-2.64L148.83-2.64Q150.04-2.24 151.59-2.24L151.59-2.24Q154.81-2.24 158.14-4.6L158.14-4.6Q159.18-5.17 159.87-4.48L159.87-4.48Q160.21-4.14 160.1-3.79L160.1-3.79Q160.1-2.99 159.7-2.64L159.7-2.64Q156.53 0.52 151.36 0.46L151.36 0.46Q146.65 0.46 143.78-2.59L143.78-2.59Q140.56-5.75 140.56-10.92L140.56-10.92Q140.56-15.69 143.2-18.79L143.2-18.79Q145.96-22.24 151.02-22.24L151.02-22.24Q156.07-22.24 158.72-19.2L158.72-19.2Q161.25-16.44 161.36-11.55ZM144.35-12.59L157.97-12.59Q157.8-15.69 155.96-17.7L155.96-17.7Q154.24-19.54 151.02-19.54L151.02-19.54Q148.26-19.54 146.3-17.47L146.3-17.47Q144.52-15.4 144.35-12.59L144.35-12.59ZM182.28-1.61L182.28-3.62Q179.41 0.46 174.46 0.46L174.46 0.46Q169.98 0.46 167.45-3.1L167.45-3.1Q165.27-6.32 165.27-10.92L165.27-10.92Q165.27-18.62 170.38-21.26L170.38-21.26Q172.11-22.24 173.86-22.24 175.61-22.24 176.76-22.04 177.91-21.84 178.95-21.26L178.95-21.26Q181.13-20.17 182.28-18.28L182.28-18.28 182.28-29.66Q182.28-30.52 182.85-30.89 183.43-31.26 184.12-31.26L184.12-31.26Q184.81-31.26 185.32-30.89 185.84-30.52 185.84-29.66L185.84-29.66 185.84-1.61Q185.84-0.8 185.27-0.4 184.69 0 184.23 0 183.77 0 183.46-0.09 183.14-0.17 182.85-0.46L182.85-0.46Q182.28-0.86 182.28-1.61L182.28-1.61ZM175.15-2.24L175.15-2.24Q182.16-2.24 182.16-11.26L182.16-11.26Q182.16-17.07 178.66-18.85L178.66-18.85Q177.34-19.54 175.5-19.54 173.66-19.54 172.45-18.82 171.24-18.1 170.44-16.9L170.44-16.9Q169-14.66 169-11.21L169-11.21Q169-6.09 171.42-3.68L171.42-3.68Q172.8-2.24 175.15-2.24Z" opacity="1" transform="matrix(1,0,0,1,0,0)" fill="#1c4b82" class="undefined-text-1" data-fill-palette-color="secondary" id="text-1"></path></svg></g></svg></g></svg></g></svg></g><g><svg viewBox="0 0 75.93828393633204 76.10077038480668" height="76.10077038480668" width="75.93828393633204"><g><svg xmlns="http://www.w3.org/2000/svg" xmlns:xlink="http://www.w3.org/1999/xlink" version="1.1" x="0" y="0" viewBox="8.416404977428295 6.998645858706123 83.70225499080244 83.88135414129387" enable-background="new 0 0 100 100" xml:space="preserve" height="76.10077038480668" width="75.93828393633204" class="icon-icon-0" fill="#1c4b82" data-fill-palette-color="accent" id="icon-0"><path d="M59.04 56.31c-1.506-1.503-2.99-3.154-4.063-4.998-1.119-1.923-1.669-4.489-3.811-5.6-2.782-1.444-5.439 1.189-7.854 2.211-0.981 0.416-2.123 0.782-3.188 0.473-0.641-0.186-1.251-0.913-1.938-0.824-0.832 0.107-1.159 1.164-0.546 1.729 1.602 1.46 3.212 3.304 3.675 5.465 0.458 2.143 1.75 4.319 3.654 5.469 2.809 1.694 5.595 0.09 8.116-1.336 1.316-0.745 2.924-1.598 4.472-1.069 0.522 0.18 0.977 0.477 1.493 0.102C59.595 57.533 59.583 56.702 59.04 56.31 58.47 55.74 59.29 56.49 59.04 56.31zM53.31 56.5c-1.649 0.826-3.239 2.147-5.1 2.45-1.635 0.274-3.005-0.778-3.862-2.075-1.267-1.914-2.367-5.636-0.012-7.196 1.248-0.826 3.001-1.92 4.448-2.29 1.601-0.409 2.488 0.91 3.129 2.17 0.402 0.791 0.726 1.621 1.146 2.403 0.16 0.299 1.061 2.107 1.381 2.107C55.478 55.107 54.203 56.081 53.31 56.5z" fill="#1c4b82" data-fill-palette-color="accent"></path><path d="M90.07 7c-2.014-0.019-2.034 1.912-2.25 3.349-0.333 2.216-0.868 4.405-1.566 6.534-1.018 3.105-2.407 6.104-4.238 8.816-1.641 2.431-3.919 5.721-7.186 5.721-4.117 0-7.093-3.839-11.337-3.303-1.322 0.167-2.596 0.716-3.613 1.578-0.221 0.187-0.419 0.394-0.623 0.598-0.563 0.563-0.56 0.729-1.349 0.522-3.966-1.035-7.923-1.489-11.926-0.391-0.354 0.097-0.704 0.203-1.052 0.316-0.257-0.283-0.53-0.552-0.816-0.805-0.601-0.532-1.264-0.995-1.978-1.363-1.729-0.891-3.706-1.146-5.602-0.702-1.81 0.424-3.261 1.626-5.057 2.073-1.876 0.466-3.894 0.382-5.769-0.049-2.313-0.532-4.323-2.057-5.808-3.866-2.826-3.443-4.16-7.998-4.824-12.334-0.151-0.987-0.283-1.987-0.326-2.986-0.11-2.594-4.001-2.497-4.001 0.098 0 2.648 0 5.296 0 7.944 0 5.846 0 11.691 0 17.537 0 1.236 0 2.473 0 3.709 0 4.007 2.487 7.17 6.25 8.394-5.3 3.926-7.429 10.145-8.393 16.433C8.254 67.129 8.5 69.592 8.5 71.913c0 4.38 0 8.761 0 13.141 0 2.02-0.726 5.826 2.289 5.826 7.494 0 14.987 0 22.48 0 1.409 0 2.818 0 4.227 0 0.275 0 0.55 0 0.825 0 1.372 0 1.784-1.137 2.464-2.099 1.587-2.243 3.941-3.883 6.483-4.879 1.508-0.592 3.048-0.402 4.654-0.402 0.836 0 1.127 0.747 1.685 1.343 1.021 1.091 2.157 2.086 3.418 2.891 3.057 1.951 6.569 2.258 9.938 0.884 0.965-0.394 2.775-2.024 3.669-1.707 1.95 0.694 4.033 1.019 6.1 0.802 3.369-0.354 6.404-2.125 8.692-4.576 2.063-2.21 3.726-4.909 3.628-8.023-0.1-3.197-1.531-6.262-3.115-8.979-1.343-2.305-3.009-4.383-4.412-6.644-1.654-2.665-3.071-5.548-4.103-8.512-0.313-0.899-0.668-1.884-0.683-2.848-0.017-1.102 2.558-0.712 3.355-0.752 3.384-0.168 6.923-0.965 9.328-3.518C91.141 42.037 92 39.777 92 37.323c0-7.875 0-15.751 0-23.627C92 11.945 92.836 7.103 90.07 7 89.02 6.99 91.15 7.04 90.07 7zM79.25 63.29c1.313 1.839 2.604 3.695 3.691 5.679 1.15 2.098 2.417 4.683 2.073 7.15-0.337 2.424-2.681 4.813-4.625 6.102-2.789 1.851-6.085 1.935-9.13 0.649 2.331-2.719 3.649-6.066 1.895-9.441-1.413-2.716-4.548-6.204-7.959-5.726-3.139 0.439-5.638 4.04-3.298 6.771 2.728 3.184 5.939-0.373 7.473-2.844 1.74 1.754 3.245 4.167 2.378 6.688-0.696 2.025-2.213 3.53-3.724 4.959-1.468 1.388-3.576 2.283-5.607 2.229-2.351-0.063-4.426-1.79-5.943-3.435-0.59-0.64-1.042-1.429-1.653-2.04-0.54-1.4-1.141-2.778-1.812-4.122-1.043-2.087-2.61-5.256-5.45-4.896-0.684 0.087-1.761 0.466-2.062 1.179-0.271 0.642 0.2 1.379 0.9 1.393 0.517 0.01 0.84-0.471 1.334-0.57 2.319-0.464 4.068 4.945 4.709 6.487-1.486 0-3.275-0.297-4.727 0.057-1.608 0.392-3.167 1.088-4.598 1.909-1.248 0.718-2.419 1.572-3.465 2.562-0.592 0.56-1.144 1.162-1.646 1.805-0.146 0.186-0.596 1.048-0.82 1.048-0.983 0-1.967 0-2.951 0-7.222 0-14.445 0-21.667 0-0.132 0-0.066-17.943-0.066-19.717 0-3.786 1.106-8.034 3-11.288 1.526-2.622 3.962-4.64 6.688-5.923 1.146-0.54 3.6-0.82 4.398-1.863 1.361-1.778-0.515-3.209-2.186-3.209-1.51 0-3.021 0-4.531 0-2.76 0-5.12-2.107-5.12-4.908 0-4.808 0-9.615 0-14.422 3.493 6.194 9.922 9.841 17.08 8.41-0.109 0.68-0.529 3.764 0.48 4.06 0.949 0.271 1.442-3.104 1.642-3.672 0.349-0.995 0.457-1.138 1.382-1.63 0.864-0.46 1.666-0.94 2.663-1.045 1.597-0.168 3.048 0.681 4.059 1.859 0.277 0.324-1.274 1.552-1.615 1.898-0.643 0.757-1.3 1.496-1.916 2.275-0.504 0.638-0.977 1.301-1.434 1.974-0.495 0.728 0.218 1.085 0.81 0.792 0.508-0.252 1.042-1.04 1.458-1.428 0.67-0.625 1.372-1.212 2.091-1.778 1.32-1.038 2.733-2.029 4.329-2.59 7.168-2.518 14.924 0.591 20.479 5.223 2.211 1.844 4.117 4.261 5.363 6.853 1.157 2.584 1.833 5.326 2.939 7.931C75.825 57.66 77.363 60.649 79.25 63.29zM67.81 70.36c-0.749 1.231-2.88 4.681-4.442 2.759-0.766-0.94-0.35-2.054 0.541-2.722C65.169 69.453 66.505 69.522 67.81 70.36 67.11 71.51 67.73 70.31 67.81 70.36zM88 38.24c-0.374 2.383-2.404 4.012-4.618 4.63-2.911 0.813-7.876-0.419-9.832 2.459-1.217-2.278-2.373-4.393-4.175-6.277-2.197-2.297-4.83-4.18-7.725-5.503 1.372-1.373 2.803-1.898 4.725-1.005 2.867 1.332 5.563 3.013 8.859 2.866C81.45 35.134 85.6 28.281 88 23.29 88 28.273 88 33.257 88 38.24z" fill="#1c4b82" data-fill-palette-color="accent"></path></svg><g></g></g></svg></g></svg></g></svg><rect width="395.52" height="62.90759296257637" fill="transparent" stroke="transparent"></rect></g><defs></defs></svg>