<svg id="symbol-0" xmlns="http://www.w3.org/2000/svg" viewBox="0 0 550 343.75">
  <rect id="background" width="550" height="343.75" fill="none"/>
  <g id="tight-bounds">
    <g id="icon-0">
      <path d="M254.67,181.24a30.52,30.52,0,0,1-30.5-30.5V110.08a30.51,30.51,0,0,1,30.5-30.5h40.66a30.51,30.51,0,0,1,30.5,30.5v40.66a30.52,30.52,0,0,1-30.5,30.5Z" fill="#49beb7"/>
      <g>
        <path d="M274.4,133" fill="#fff"/>
        <path d="M275.12,141.24h-.07a18.58,18.58,0,0,1-4.87-.56c-2.27-.63-2.74-1.69-2.74-2.47,0-2.6.26-4.59,1.52-5.87s2.89-1.6,6.09-1.6,5,.46,6.1,1.6c1.27,1.28,1.53,3.27,1.53,5.87C282.68,141,276.89,141.24,275.12,141.24Zm-.07-8.64c-2.62,0-4,.32-4.76,1.05s-1,2-1,4.56c.16.41,2.2,1.16,5.69,1.16h.13c3.5,0,5.54-.75,5.7-1.17,0-2.52-.29-3.84-1-4.55S277.67,132.6,275.05,132.6Z" fill="#fff"/>
        <g>
          <path d="M273.64,135.45a1.63,1.63,0,1,0-1.64,1.62,1.63,1.63,0,0,0,1.64-1.62Z" fill="#fff"/>
          <path d="M279.72,135.45a1.63,1.63,0,1,0-1.64,1.62h0A1.63,1.63,0,0,0,279.72,135.45Z" fill="#fff"/>
        </g>
        <path d="M284.87,115.73a.94.94,0,0,0-1.29.3c-3.31,5.34-5.23,5.69-5.87,5.62-1.17-.15-1.76-1.91-1.76-1.93h0a1.16,1.16,0,0,0-.25-.29c-.07-.08-.12-.18-.22-.23h-.32c-.11,0-.21-.07-.32,0h0l-.23.19a1.1,1.1,0,0,0-.29.28h0s-.76,1.72-2.1,1.81c-.81,0-2.79-.57-5.67-5.4a.94.94,0,0,0-1.28-.33A.92.92,0,0,0,265,117h0a22.85,22.85,0,0,0,2.78,3.78,2.68,2.68,0,1,0,3.14,2.62h0a2.33,2.33,0,0,0-.08-.38,4.23,4.23,0,0,0,1.31.3h.26a4,4,0,0,0,2.64-1.48,3.7,3.7,0,0,0,2.51,1.66,2.94,2.94,0,0,0,.42,0,4,4,0,0,0,1.53-.36,1.89,1.89,0,0,0,0,.23,2.71,2.71,0,1,0,3-2.64,26.86,26.86,0,0,0,2.78-3.74A1,1,0,0,0,284.87,115.73ZM268,124.25a.85.85,0,1,1,.85-.85.85.85,0,0,1-.85.85Zm14.89-.85a.85.85,0,1,1-.86-.84h0a.85.85,0,0,1,.87.83h0Z" fill="#fff"/>
        <path d="M311.41,101.37a1.78,1.78,0,0,0-1.85-1.45,1.86,1.86,0,0,0-1.8,1.5A9.1,9.1,0,0,1,303.4,108c-6.69,3.91-18.32.11-18.44.08a.38.38,0,0,0-.19,0,24.73,24.73,0,0,0-19.39,0,1.93,1.93,0,0,0-.34,0c-.12,0-11.75,3.83-18.44-.08a9.1,9.1,0,0,1-4.36-6.53,1.86,1.86,0,0,0-1.8-1.5,1.66,1.66,0,0,0-1.85,1.45c-1.15,5.08-.46,9.37,2,12.74,3.06,4.11,8,5.74,11.06,6.38l-7.26,4.16a1.86,1.86,0,0,0-.85,2.17c.67,2.12,2.81,3.48,5.47,3.48a9.42,9.42,0,0,0,3.31-.73,18,18,0,0,0,8.38,13.2,78.38,78.38,0,0,0-5.88,17.31l3.63.83A74.79,74.79,0,0,1,264,144.45a28.79,28.79,0,0,0,11,2.08,28.32,28.32,0,0,0,11-2.12,72.77,72.77,0,0,1,5.65,16.14l3.62-.86a76.05,76.05,0,0,0-6-17,18.24,18.24,0,0,0,8.44-13.1,9.33,9.33,0,0,0,3.22.69c2.65,0,4.79-1.36,5.46-3.48a1.86,1.86,0,0,0-.85-2.17l-7.26-4.16c3.06-.64,8-2.27,11.06-6.38C311.87,110.74,312.56,106.45,311.41,101.37Zm-67.78,10.5a9,9,0,0,1-1.31-2.54,11.92,11.92,0,0,0,2.41,1.82c3.87,2.26,8.78,2.49,12.93,2.11a19.82,19.82,0,0,0-3,3.94h-.06S247.16,116.64,243.63,111.87Zm8.19,13.73v.19a5,5,0,0,1-3.17.74l3.35-1.92c-.09.38-.13.71-.18,1Zm23.23,17.18c-11.87,0-19.24-6.24-19.24-16.28,0-9.26,8.63-16.78,19.25-16.78s19.24,7.52,19.24,16.78c0,9.91-7.55,16.3-19.25,16.3Zm23.16-17v-.19c0-.3-.09-.63-.15-1l3.35,1.92a5,5,0,0,1-3.2-.7Zm8.17-13.91c-3.44,4.63-10.63,5.29-11,5.32a20.74,20.74,0,0,0-2.94-3.91c4.12.37,9,.11,12.8-2.12a12.46,12.46,0,0,0,2.41-1.81A8.92,8.92,0,0,1,306.38,111.87Z" fill="#fff"/>
      </g>
    </g>
  </g>
</svg>
