<?xml version="1.0" encoding="utf-8"?>
<!-- Generator: Adobe Illustrator 24.1.0, SVG Export Plug-In . SVG Version: 6.00 Build 0)  -->
<svg version="1.1" id="icon-0" xmlns="http://www.w3.org/2000/svg" xmlns:xlink="http://www.w3.org/1999/xlink" x="0px" y="0px"
	 viewBox="0 0 550 343.8" style="enable-background:new 0 0 550 343.8;" xml:space="preserve">
<style type="text/css">
	.st0{fill:none;}
	.st1{fill:#1C4B82;}
</style>
<rect id="background" class="st0" width="550" height="343.8"/>
<g id="tight-bounds">
	<g>
		<g>
			<path id="text-0" class="st1" d="M127.9,184.5H109c-1.7,0.1-3.4-0.1-5.1-0.4c-1-0.3-1.5-0.6-1.5-1l0,0l3.1-9.3
				c0.8,0.2,2.4,0.4,4.8,0.5c2.4,0.2,5.6,0.2,9.5,0.2h4c0.8,0.1,1.7-0.1,2.4-0.7c0.4-0.6,0.7-1.4,0.6-2.2l0,0v-0.7
				c0.1-0.9-0.1-1.8-0.6-2.4c-0.7-0.5-1.6-0.7-2.4-0.6h-11.6c-3.4,0-5.9-0.9-7.5-2.7c-1.7-2.3-2.6-5.5-2.3-8.8l0,0v-2.6
				c0-2,0.3-4,0.8-5.8c0.6-1.9,1.6-3.4,2.9-4.4c1.7-1.2,3.7-1.7,5.6-1.6h16.9c1.7,0,3.5,0.1,5.2,0.5c1.4,0.3,2,0.7,2,1.1l0,0
				l-1.5,8.9c-0.9-0.2-2.7-0.3-5.4-0.5s-6-0.2-10-0.2l0,0h-3.7c-0.8-0.1-1.5,0.1-2.2,0.6c-0.5,0.5-0.7,1.3-0.7,2.2l0,0v0.5
				c-0.1,0.9,0.2,1.8,0.7,2.3c0.7,0.5,1.5,0.7,2.3,0.6h11.2c1.9,0,3.7,0.3,5.5,0.9c1.4,0.5,2.7,1.7,3.5,3.4c0.9,2.2,1.3,4.7,1.2,7.3
				l0,0v2.6c0.1,3.2-0.6,6.3-2,8.8c-1.3,2.2-3.6,3.3-6.8,3.3L127.9,184.5z M152.6,184.5h-3.1c-2.6,0-4.3-0.8-5.3-2.3
				c-1-2-1.6-4.4-1.4-6.9l0,0v-13.9h-4.2v-9.1h2.1c0.5,0,1-0.1,1.4-0.5c0.4-0.4,0.6-1,0.7-1.7l0,0l1-7.7h8.3v9.8h8.5v9.1h-8.5v11.1
				c-0.1,0.9,0.1,1.8,0.6,2.4c0.6,0.4,1.2,0.7,1.8,0.6h5.1l1,8.3c-0.7,0.1-1.8,0.3-3.3,0.5C156,184.4,154.4,184.5,152.6,184.5
				L152.6,184.5z M186.1,184.5H172c-1.7,0.1-3.5-0.3-5-1.4c-1.1-0.8-1.8-2.2-2.2-3.8c-0.4-1.8-0.6-3.7-0.5-5.6l0,0v-10.8
				c0-1.8,0.2-3.7,0.6-5.4c0.4-1.6,1.2-3,2.2-3.8c1.6-1.1,3.3-1.6,5-1.4h14.1c1.7-0.2,3.4,0.3,5,1.4c1,0.8,1.8,2.2,2.2,3.8
				c0.4,1.8,0.6,3.6,0.5,5.4l0,0v10.8c0,1.9-0.2,3.8-0.5,5.6c-0.4,1.6-1.1,3-2.2,3.8C189.5,184.1,187.8,184.6,186.1,184.5
				L186.1,184.5z M176,175.4h6.1c1.6,0,2.4-1,2.4-2.9l0,0v-8.2c0-0.8-0.2-1.6-0.5-2.2c-0.5-0.5-1.2-0.8-1.8-0.7h-6
				c-0.7-0.1-1.3,0.2-1.9,0.7c-0.4,0.6-0.6,1.4-0.6,2.2l0,0v8.3C173.7,174.4,174.4,175.4,176,175.4L176,175.4z M216.8,184.5h-9.6
				c-1.8,0.1-3.5-0.3-5.2-1.4c-1.1-0.8-2-2.1-2.5-3.8c-0.5-1.8-0.7-3.7-0.7-5.6l0,0v-10.8c0-1.8,0.2-3.6,0.7-5.3
				c0.5-1.7,1.4-3,2.5-3.9c1.6-1.1,3.4-1.6,5.1-1.5h6.5c2.9-0.1,5.7,0.1,8.6,0.7c1.1,0.1,2.2,0.6,3.1,1.4l0,0l-1.5,7.6
				c-0.7,0-2-0.2-3.9-0.4c-1.9-0.2-3.9-0.3-6.2-0.3h-3.1c-0.7-0.1-1.3,0.2-1.9,0.7c-0.4,0.6-0.6,1.4-0.6,2.2l0,0v8.3
				c0,0.8,0.1,1.6,0.5,2.2c0.6,0.6,1.2,0.8,1.9,0.7h2.6c2.5,0,4.6,0,6.5-0.3c1.8-0.3,3.1-0.3,4-0.5l0,0l3.1,6.8c0,0.7-0.8,1.3-2.5,2
				C221.9,184.3,219.4,184.6,216.8,184.5L216.8,184.5z M256.8,185.2L256.8,185.2c-1.5,0-2.9-0.2-4.3-0.7c-1.3-0.6-2.6-1.6-3.5-3.1
				l0,0l-2-2.9l-2-2.9l0,0c-0.5-0.8-1-1.5-1.3-1.9c-0.3-0.4-0.6-0.7-1-0.9c-0.4-0.2-0.9-0.3-1.3-0.3l0,0c-0.5-0.1-0.9,0-1.3,0.3
				c-0.1,0.2-0.2,0.8-0.2,1.9l0,0v9.7h-9.3V139h9.3v24.4h1.5c0.6,0,1.2-0.4,1.6-1l0,0c0.5-0.8,1-1.6,1.4-2.4
				c0.6-1.1,1.3-2.4,2.1-3.8c0.7-1.4,1.4-2.6,2-3.8H259l-0.8,2.2c-0.8,1.4-1.7,3-2.8,4.8c-1.1,1.7-2.1,3.3-3.1,4.7
				c-0.7,1.1-1.5,2.1-2.4,3l0,0c1.3,1.2,2.5,2.6,3.7,4c1.3,1.6,2.8,2.8,4.4,3.8l0,0c1,0.6,2,1.1,3,1.4c0.6,0.2,1.2,0.3,1.7,0.3l0,0
				l-1.4,7.9c-0.6,0.2-1.1,0.4-1.7,0.5C258.7,185.1,257.7,185.2,256.8,185.2L256.8,185.2z M302.6,184.5h-18.9
				c-1.7,0.1-3.4-0.1-5-0.5c-1.1-0.3-1.6-0.6-1.6-1l0,0l3.1-9.3c0.8,0.2,2.4,0.4,4.8,0.5c2.4,0.2,5.6,0.2,9.5,0.2h4
				c0.8,0.1,1.7-0.1,2.4-0.7c0.4-0.6,0.7-1.4,0.6-2.2l0,0v-0.7c0.1-0.9-0.1-1.8-0.6-2.4c-0.7-0.5-1.6-0.7-2.4-0.6h-11.6
				c-3.4,0-5.9-0.9-7.5-2.7c-1.7-2.3-2.6-5.5-2.3-8.8l0,0v-2.6c0-2,0.3-4,0.8-5.8c0.6-1.9,1.6-3.4,2.9-4.4c1.7-1.2,3.7-1.7,5.6-1.6
				h16.9c1.7,0,3.4,0.1,5.1,0.5c1.4,0.3,2.1,0.7,2.1,1.1l0,0l-1.5,8.9c-0.9-0.2-2.7-0.3-5.4-0.5c-2.6-0.2-6-0.2-10-0.2l0,0H290
				c-0.8-0.1-1.5,0.1-2.2,0.6c-0.5,0.5-0.7,1.3-0.7,2.2l0,0v0.5c-0.1,0.9,0.2,1.8,0.7,2.3c0.7,0.5,1.5,0.7,2.3,0.6h11.2
				c1.9,0,3.7,0.3,5.5,0.9c1.4,0.5,2.7,1.7,3.5,3.4c0.9,2.2,1.3,4.7,1.2,7.3l0,0v2.6c0.1,3.2-0.6,6.3-2,8.8
				c-1.3,2.2-3.6,3.3-6.8,3.3L302.6,184.5z M334.9,184.5h-9.7c-1.8,0.1-3.5-0.3-5.2-1.4c-1.1-0.8-2-2.1-2.5-3.8
				c-0.5-1.8-0.7-3.7-0.7-5.6l0,0v-10.8c0-1.8,0.2-3.6,0.7-5.3c0.5-1.7,1.4-3,2.5-3.9c1.6-1.1,3.4-1.6,5.1-1.5h6.5
				c2.9-0.1,5.7,0.1,8.6,0.7c1.1,0.1,2.2,0.6,3.1,1.4l0,0l-1.5,7.6c-0.7,0-2-0.2-3.9-0.4c-1.9-0.2-3.9-0.3-6.2-0.3h-3.1
				c-0.7-0.1-1.3,0.2-1.9,0.7c-0.4,0.6-0.6,1.4-0.6,2.2l0,0v8.3c0,0.8,0.1,1.6,0.5,2.2c0.6,0.6,1.2,0.8,1.9,0.7h2.7
				c2.5,0,4.6,0,6.5-0.3c1.8-0.3,3.1-0.3,4-0.5l0,0l3.1,6.8c0,0.7-0.8,1.3-2.5,2C340,184.3,337.4,184.6,334.9,184.5L334.9,184.5z
				 M357.7,184.5h-9.3v-32.2h7.2l1.9,1.4c1.9-1.6,4-2.3,6.2-2.2l0,0c1.5,0,3,0.2,4.5,0.7c1.1,0.4,2.1,1,3.1,1.6
				c0.5,0.3,1.1,0.7,1.5,1.2l0,0l-2.5,9.4c-0.6-0.5-1.2-1-1.9-1.4c-1.1-0.6-2.2-1.2-3.3-1.6c-1.3-0.5-2.6-0.7-4-0.7h-0.6
				c-0.8-0.1-1.5,0.2-2.2,0.7c-0.5,0.5-0.8,1.5-0.8,3l0,0L357.7,184.5z M395,184.5h-10.8c-1.8,0.1-3.5-0.3-5.2-1.4
				c-1.1-0.8-2-2.1-2.5-3.8c-0.5-1.8-0.7-3.7-0.7-5.6l0,0v-10.8c0-1.8,0.2-3.6,0.7-5.3c0.5-1.6,1.4-3,2.5-3.9
				c1.6-1.1,3.4-1.6,5.1-1.5h10.5c2.1-0.1,4.1,0.3,6.1,1.3c1.3,0.7,2.3,2,2.9,3.7c0.5,1.8,0.8,3.7,0.8,5.6l0,0v9.2h-8.9
				c-3.1,0-5.4,0-6.9-0.3c-1.6-0.3-2.7-0.3-3.3-0.4l0,0v1.1c0,1.9,0.8,2.9,2.4,2.9h1.5c2.7,0,5.2-0.1,7.5-0.3c2.3-0.2,4-0.3,5.1-0.5
				l0,0l3.1,6.8c0,0.5-0.3,0.9-0.9,1.4c-1,0.6-2,0.9-3,1.1C399.1,184.4,397,184.5,395,184.5L395,184.5z M385.3,164.3v1h9.8v-1
				c0-0.7,0-1.5-0.2-2.2c-0.1-0.4-0.5-0.6-1.1-0.7c-0.6-0.1-1.6-0.1-3.1-0.1h-3c-1.6,0-2.4,0.9-2.4,2.9L385.3,164.3z M428.6,184.5
				h-10.8c-1.8,0.1-3.5-0.3-5.2-1.4c-1.1-0.8-2-2.1-2.5-3.8c-0.5-1.8-0.7-3.7-0.7-5.6l0,0V163c0-1.8,0.3-3.6,0.8-5.3
				c0.5-1.6,1.4-3,2.5-3.9c1.6-1.1,3.4-1.6,5.1-1.5h10.5c2.1-0.1,4.1,0.3,6.1,1.3c1.3,0.7,2.3,2,2.9,3.7c0.5,1.8,0.8,3.7,0.8,5.6
				l0,0v9.2h-8.9c-3.1,0-5.4,0-6.9-0.3c-1.6-0.3-2.7-0.3-3.3-0.4l0,0v1.1c0,1.9,0.8,2.9,2.4,2.9h1.5c2.7,0,5.2-0.1,7.5-0.3
				c2.3-0.2,4-0.3,5.1-0.5l0,0l3.1,6.8c0,0.5-0.3,0.9-0.9,1.4c-1,0.6-2,1-3.1,1.1C432.8,184.5,430.7,184.6,428.6,184.5L428.6,184.5z
				 M419,164.3v1h9.8v-1c0-0.7,0-1.4-0.2-2c-0.1-0.4-0.5-0.6-1.1-0.7c-0.6-0.1-1.6-0.1-3.1-0.1h-2.9
				C419.8,161.4,419,162.4,419,164.3z M453.1,184.5h-9.4v-32.2h7.4l2,1.4c1.4-0.4,3.1-0.7,5.2-1s3.9-0.4,5.7-0.4h2.5
				c1.3-0.1,2.7,0.2,3.9,1c0.8,0.5,1.5,1.4,2,2.5c0.4,0.9,0.6,2,0.7,3.1c0.1,0.9,0.1,1.7,0.1,2.6l0,0v23h-9.3v-20.3
				c0-1.9-0.8-2.9-2.4-2.9h-6.8c-0.4-0.1-0.8,0-1.2,0.2c-0.2,0.2-0.3,0.6-0.3,1.3l0,0L453.1,184.5z M497.6,184.5h-10.8
				c-1.8,0.1-3.5-0.3-5.1-1.4c-1.1-0.8-2-2.1-2.5-3.8c-0.5-1.8-0.7-3.7-0.7-5.6l0,0V163c0-1.8,0.2-3.6,0.7-5.3
				c0.5-1.7,1.4-3,2.5-3.9c1.6-1.1,3.4-1.6,5.1-1.5h10.5c2.1-0.1,4.1,0.3,6.1,1.3c1.3,0.7,2.3,2,2.9,3.7c0.5,1.8,0.8,3.7,0.8,5.6
				l0,0v9.2h-8.9c-3.1,0-5.4,0-6.9-0.3c-1.6-0.3-2.7-0.3-3.3-0.4l0,0v1.1c0,1.9,0.8,2.9,2.4,2.9h1.5c2.7,0,5.2,0,7.5-0.3
				c2.3-0.3,4-0.3,5.1-0.5l0,0l3.1,6.8c0,0.5-0.3,0.9-0.9,1.4c-1,0.6-2,0.9-3,1.1C501.7,184.4,499.6,184.6,497.6,184.5L497.6,184.5z
				 M487.9,164.3v1h9.8v-1c0-0.7,0-1.4-0.2-2c-0.1-0.4-0.5-0.6-1.1-0.7c-0.6-0.1-1.6-0.1-3.1-0.1h-2.9
				C488.7,161.4,487.9,162.4,487.9,164.3L487.9,164.3z M522,184.5h-9.3v-32.2h7.2l1.9,1.4c1.9-1.6,4-2.3,6.2-2.2l0,0
				c1.5,0,3,0.2,4.5,0.7c1.1,0.4,2.1,1,3.1,1.6c0.5,0.3,1.1,0.7,1.5,1.2l0,0l-2.5,9.4c-0.6-0.5-1.2-1-1.9-1.4
				c-1.1-0.6-2.2-1.2-3.3-1.6c-1.3-0.5-2.6-0.7-4-0.7h-0.6c-0.8-0.1-1.5,0.2-2.2,0.7c-0.5,0.5-0.8,1.5-0.8,3l0,0L522,184.5z"/>
			<path id="text-1" class="st1" d="M104.5,206.2v1.7c0.5-2.4,2.1-3.9,3.8-3.7l0,0c0.3,0,0.6,0.1,0.8,0.4c0.2,0.3,0.3,0.6,0.3,0.9
				c0,0.3-0.1,0.7-0.3,0.9c-0.3,0.3-0.6,0.5-1,0.4c-0.5,0-1,0.1-1.5,0.4c-0.5,0.2-0.9,0.7-1.2,1.2l0,0c-0.7,1.3-1,2.8-1,4.4l0,0v9.7
				c0,0.4-0.1,0.8-0.4,1.1c-0.2,0.2-0.4,0.3-0.7,0.4c-0.2,0-0.3,0-0.5,0c-0.1-0.1-0.3-0.2-0.4-0.3l0,0c-0.2-0.2-0.4-0.6-0.3-1l0,0
				v-16.6c0-0.4,0.1-0.8,0.3-1.1c0.2-0.3,0.5-0.5,0.8-0.4c0.3,0,0.6,0.1,0.8,0.4C104.4,205.4,104.5,205.8,104.5,206.2L104.5,206.2z
				 M124.4,213.9L124.4,213.9c0,0.7-0.3,1.1-0.9,1.2h-10c-0.2,2.9,1,5.7,2.9,6.8l0,0c0.6,0.2,1.2,0.4,1.7,0.4l0,0
				c1.5-0.1,3-0.9,4.1-2.2l0,0c0.3-0.4,0.8-0.4,1.1,0l0,0c0.1,0.1,0.2,0.4,0.1,0.6l0,0c0,0.4-0.1,0.7-0.2,1l0,0
				c-1.4,1.9-3.3,2.9-5.3,2.8l0,0c-1.8,0.1-3.5-0.9-4.8-2.7l0,0c-1.4-2-2.1-4.7-2-7.5l0,0c-0.1-2.6,0.5-5.1,1.7-7.1l0,0
				c1.2-2.1,3-3.3,5-3.1l0,0c1.8-0.2,3.6,0.8,4.9,2.7l0,0C123.9,208.8,124.5,211.3,124.4,213.9z M113.6,212.9h8.6
				c0-1.7-0.5-3.3-1.3-4.6l0,0c-0.8-1.1-1.9-1.7-3.1-1.6l0,0c-1.1,0-2.2,0.7-3,1.9l0,0C114.1,209.8,113.7,211.3,113.6,212.9
				L113.6,212.9z M135.1,223.1L135.1,223.1c0,1-0.9,1.6-2.6,1.6l0,0c-1,0.1-2-0.4-2.7-1.5l0,0c-0.7-1.6-1-3.4-0.9-5.3l0,0v-10.8
				h-1.5c-0.3,0-0.5-0.1-0.7-0.4c-0.2-0.2-0.3-0.5-0.3-0.8l0,0c0-0.3,0.1-0.6,0.2-0.8c0.2-0.3,0.5-0.5,0.7-0.4h1.7l0.2-5.6
				c0-0.4,0.2-0.7,0.4-0.9c0.2-0.2,0.4-0.3,0.7-0.3c0.5-0.1,0.8,0.4,0.9,1.1c0,0.1,0,0.1,0,0.2l0,0v5.6h2.5c0.3,0,0.5,0.1,0.7,0.4
				c0.1,0.2,0.2,0.5,0.2,0.8l0,0c0,0.3-0.1,0.6-0.2,0.9c-0.2,0.2-0.4,0.4-0.7,0.3h-2.5v9.1c-0.1,1.5,0,3.1,0.2,4.6
				c0.1,0.5,0.3,0.9,0.6,1.1c0.3,0.2,0.6,0.3,1,0.3l0,0l1.4-0.2c0.2,0,0.5,0.1,0.6,0.4C135,222.6,135.1,222.8,135.1,223.1
				L135.1,223.1z M147.1,222.8v-11.2c0.1-1.4-0.3-2.7-0.9-3.7l0,0c-0.5-0.7-1.2-1.1-2-1.1c-0.6,0-1.3,0.1-1.9,0.4
				c-0.5,0.2-1,0.6-1.3,1.2l0,0c-0.9,1.2-1.3,2.9-1.2,4.7l0,0v9.9c0,0.4-0.1,0.8-0.4,1.1c-0.2,0.2-0.5,0.4-0.8,0.4l0,0
				c-0.3,0-0.5-0.1-0.7-0.4c-0.2-0.3-0.3-0.7-0.3-1.1l0,0v-25.2c0-0.4,0.1-0.8,0.4-1.1c0.2-0.2,0.5-0.3,0.7-0.4l0,0
				c0.3,0,0.5,0.1,0.8,0.3c0.2,0.3,0.4,0.7,0.3,1.1l0,0v10.5c0.4-1.2,1-2.2,1.9-2.8l0,0c0.8-0.6,1.7-0.9,2.5-0.9
				c0.7,0,1.4,0.1,2.1,0.4c0.6,0.3,1.1,0.7,1.5,1.3l0,0c1,1.5,1.6,3.6,1.5,5.8l0,0v10.9c0,0.4-0.1,0.8-0.4,1.1
				c-0.2,0.2-0.5,0.3-0.8,0.4l0,0c-0.3,0-0.6-0.1-0.8-0.4C147.1,223.6,147,223.2,147.1,222.8L147.1,222.8z M156.2,197.8L156.2,197.8
				c0,0.5-0.1,1-0.4,1.3c-0.3,0.4-0.7,0.6-1.1,0.5c-0.4,0-0.8-0.1-1.1-0.5c-0.3-0.3-0.4-0.8-0.4-1.3l0,0c0-0.5,0.1-0.9,0.4-1.2
				c0.3-0.4,0.7-0.6,1.1-0.5c0.4,0,0.8,0.1,1.1,0.5C156.1,196.9,156.3,197.4,156.2,197.8L156.2,197.8z M153.6,222.7v-16.4
				c0-0.5,0.1-0.9,0.4-1.2c0.2-0.3,0.4-0.4,0.7-0.4c0.2,0,0.3,0,0.5,0c0.1,0.1,0.2,0.2,0.4,0.4l0,0c0.3,0.2,0.4,0.7,0.4,1.1l0,0
				v16.4c0,0.4-0.1,0.9-0.4,1.1c-0.2,0.3-0.5,0.4-0.8,0.4l0,0c-0.3,0-0.5-0.1-0.8-0.4c-0.2-0.3-0.4-0.7-0.3-1.1L153.6,222.7z
				 M160.2,222.7V206c0-0.4,0.1-0.8,0.4-1.1c0.2-0.3,0.5-0.4,0.7-0.4l0,0c0.4-0.1,0.8,0.3,1,0.8c0.2,0.8,0.2,1.6,0.1,2.5l0,0
				c0.4-1.2,1.1-2.1,1.9-2.7l0,0c0.8-0.6,1.6-1,2.5-1c0.7,0,1.4,0.1,2.1,0.4c0.6,0.3,1.1,0.8,1.5,1.4l0,0c1,1.5,1.6,3.6,1.5,5.8l0,0
				v10.9c0,0.4-0.1,0.8-0.4,1.1c-0.2,0.2-0.5,0.3-0.8,0.4l0,0c-0.3,0-0.5-0.1-0.8-0.4c-0.2-0.3-0.3-0.6-0.3-1.1l0,0v-11.1
				c0.1-1.4-0.3-2.7-0.9-3.7l0,0c-0.6-0.8-1.4-1.2-2.2-1.2l0,0c-1.1,0-2.1,0.5-3,1.4l0,0c-0.9,1.2-1.3,3-1.2,4.7l0,0v9.9
				c0,0.4-0.1,0.8-0.4,1.1c-0.2,0.2-0.5,0.4-0.8,0.4l0,0c-0.3,0-0.5-0.1-0.7-0.4C160.2,223.5,160.1,223.1,160.2,222.7L160.2,222.7z
				 M185.4,223.6l-6.9-10v9c0,0.4-0.1,0.9-0.3,1.1c-0.2,0.3-0.5,0.4-0.8,0.4c-0.3,0-0.5-0.1-0.8-0.4c-0.2-0.3-0.3-0.7-0.3-1.1l0,0
				v-25c0-0.4,0.1-0.9,0.3-1.2c0.2-0.2,0.4-0.3,0.7-0.4h0.5c0.1,0,0.3,0.1,0.4,0.3l0,0c0.2,0.3,0.3,0.7,0.3,1.2l0,0v14.9l6.3-7.5
				c0.2-0.3,0.4-0.5,0.7-0.5l0,0c0.3,0,0.5,0.1,0.7,0.4c0.2,0.2,0.3,0.5,0.3,0.8l0,0c0,0.4-0.1,0.7-0.3,1l0,0l-5.4,6.4l6.2,8.8
				c0.1,0.2,0.2,0.5,0.2,0.7c0,0.2,0,0.5-0.1,0.7c-0.1,0.2-0.2,0.3-0.3,0.4l0,0c-0.2,0.3-0.5,0.4-0.7,0.4
				C185.9,224.1,185.7,223.9,185.4,223.6L185.4,223.6z M202.3,213.8L202.3,213.8c0,0.7-0.3,1.1-0.9,1.2h-10c-0.2,2.9,1,5.7,2.9,6.8
				l0,0c0.6,0.2,1.2,0.4,1.7,0.4l0,0c1.5-0.1,3-0.9,4.1-2.2l0,0c0.3-0.4,0.8-0.4,1.1,0l0,0c0.1,0.1,0.2,0.4,0.1,0.6l0,0
				c0,0.4-0.1,0.8-0.2,1l0,0c-1.4,1.9-3.3,2.9-5.3,2.8l0,0c-1.8,0.1-3.5-0.9-4.8-2.7l0,0c-1.4-2-2.1-4.7-2-7.5l0,0
				c-0.1-2.6,0.5-5.1,1.7-7.1l0,0c1.2-2.1,3-3.3,5-3.1l0,0c1.8-0.2,3.6,0.8,4.9,2.7l0,0C201.9,208.7,202.5,211.3,202.3,213.8
				L202.3,213.8z M191.5,212.8h8.6c0-1.7-0.5-3.3-1.3-4.6l0,0c-0.8-1.1-1.9-1.7-3.1-1.6l0,0c-1.1,0-2.2,0.7-3,1.9l0,0
				C192,209.7,191.6,211.2,191.5,212.8L191.5,212.8z M215.5,222.7v-1.8c-1.1,2.3-3,3.7-5,3.7l0,0c-1.8,0.1-3.4-1.1-4.4-3.2l0,0
				c-0.9-2.1-1.4-4.5-1.4-7l0,0c0-4.6,1.1-7.7,3.2-9.3l0,0c0.7-0.5,1.4-0.9,2.2-0.9c0.6,0,1.2,0.1,1.8,0.2c0.5,0.1,1,0.3,1.4,0.7
				l0,0c0.9,0.6,1.6,1.5,2.1,2.7l0,0v-10.2c0-0.4,0.1-0.9,0.4-1.1c0.2-0.2,0.5-0.3,0.8-0.3l0,0c0.3,0,0.5,0.1,0.8,0.3
				c0.2,0.3,0.4,0.7,0.3,1.1l0,0v25.2c0,0.4-0.1,0.8-0.4,1.1c-0.2,0.2-0.4,0.3-0.7,0.4c-0.2,0-0.3,0-0.5,0c-0.1-0.1-0.3-0.2-0.4-0.3
				l0,0C215.7,223.6,215.5,223.2,215.5,222.7L215.5,222.7z M211,222.1L211,222.1c3,0,4.5-2.7,4.5-8.1l0,0c0-3.5-0.7-5.7-2.2-6.8l0,0
				c-0.6-0.4-1.3-0.6-2-0.6c-1.3-0.1-2.5,0.8-3.2,2.4l0,0c-0.7,1.5-1,3.3-0.9,5.1l0,0c-0.1,2.5,0.4,4.9,1.5,6.7l0,0
				C209.3,221.8,210.2,222.3,211,222.1L211,222.1z"/>
		</g>
		<g>
			<path class="st1" d="M61.6,192.2c-1.6-2.1-2.9-4.5-4.1-7.1c-1.1-2.7-1.7-6.3-3.8-7.9c-2.8-2-5.4,1.7-7.8,3.1
				c-1,0.7-2.1,1-3.2,0.7c-0.7-0.3-1.3-1.3-1.9-1.2c-0.5,0.1-0.9,0.8-0.9,1.6c0,0.3,0.1,0.6,0.3,0.8c1.8,2,3,4.7,3.7,7.7
				c0.4,3.2,1.8,5.9,3.7,7.7c2.8,2.4,5.6,0.1,8.1-1.9c1.3-1.4,2.9-1.9,4.5-1.5c0.5,0.3,1,0.7,1.5,0.2c0.4-0.5,0.5-1.4,0.2-2
				C61.8,192.4,61.7,192.3,61.6,192.2C61,191.4,61.8,192.5,61.6,192.2z M55.8,192.5c-1.6,1.5-3.3,2.7-5.1,3.5
				c-1.6,0.2-3.1-0.9-3.9-2.9c-1.3-2.7-2.4-7.9,0-10.1c1.4-1.4,2.9-2.5,4.4-3.2c1.5-0.6,2.5,1.3,3.1,3.1c0.4,1.1,0.7,2.2,1.1,3.4
				c0.2,0.4,1.1,3,1.4,3C58,190.6,56.7,191.9,55.8,192.5L55.8,192.5z"/>
			<path class="st1" d="M92.5,122.7c-2,0-2,2.7-2.2,4.7c-0.3,3.1-0.9,6.2-1.5,9.2c-1,4.4-2.4,8.6-4.2,12.4c-1.5,3.4-3.9,8.1-7.2,8.1
				c-4.1,0-7.1-5.4-11.3-4.7c-1.3,0.2-2.6,1-3.6,2.2c-0.2,0.3-0.4,0.5-0.6,0.8c-0.6,0.8-0.6,1-1.3,0.7c-3.9-1.7-8-1.9-11.9-0.5
				l-1.1,0.4c-0.3-0.4-0.5-0.8-0.8-1.1c-0.6-0.8-1.3-1.4-2-1.9c-1.7-1.3-3.7-1.6-5.6-1c-1.8,0.6-3.3,2.3-5,2.9
				c-1.9,0.6-3.9,0.6-5.8,0c-2.3-0.9-4.3-2.8-5.8-5.5c-2.7-5.1-4.3-11.1-4.8-17.4c-0.2-1.4-0.3-2.8-0.3-4.2c0-1.6-0.9-2.8-2-2.8
				c-1.1,0-2,1.3-2,2.9v41.2c0,5.5,2.5,10.3,6.2,11.8c-5.3,5.5-7.4,14.3-8.4,23.2c-0.2,3.3-0.2,6.7-0.1,10v18.5
				c0,2.8-0.7,8.2,2.3,8.2h27.5c1.4,0,1.8-1.6,2.5-3c1.6-3.1,3.9-5.5,6.5-6.9c1.5-0.6,3.1-0.8,4.6-0.6c0.8,0,1.1,1.1,1.7,1.9
				c1,1.6,2.2,2.9,3.4,4.1c2.9,2.7,6.7,3.2,9.9,1.2c1-0.5,2.8-2.8,3.7-2.4c1.9,1,4,1.4,6.1,1.1c3.4-0.6,6.4-3,8.7-6.6
				c2.2-2.9,3.5-7,3.6-11.3c-0.3-4.5-1.3-8.9-3.1-12.7c-1.3-3.2-3-6.2-4.4-9.4c-1.7-3.8-3-7.8-4.1-12c-0.4-1.3-0.6-2.6-0.7-4
				c0-1.6,2.6-1,3.4-1.1c3.4,0.1,6.8-1.7,9.3-4.9c1.7-2.5,2.6-5.8,2.6-9.2v-33.3C94.4,129.6,95.2,122.8,92.5,122.7
				C91.5,122.7,93.6,122.7,92.5,122.7z M81.7,202.1c1.3,2.6,2.6,5.2,3.7,8c1.1,3,2.4,6.6,2.1,10.1c-0.3,3.5-2.7,6.8-4.6,8.6
				c-2.7,2.5-6.2,2.8-9.1,0.9c2.3-3.8,3.6-8.6,1.9-13.3c-1.4-3.8-4.5-8.8-7.9-8.1c-3.1,0.6-5.6,5.7-3.3,9.6c2.7,4.4,5.9-0.5,7.4-4
				c1.7,2.5,3.3,5.9,2.4,9.4c-0.8,2.7-2.1,5.1-3.7,7c-1.5,2-3.5,3.2-5.6,3.2c-2.3-0.5-4.5-2.2-5.9-4.9c-0.6-0.9-1-2-1.6-2.9
				c-0.5-2-1.1-3.9-1.8-5.8c-1-2.9-2.6-7.4-5.4-6.9c-0.8,0.1-1.5,0.7-1.9,1.6c-0.2,0.7,0,1.5,0.5,1.8c0.1,0.1,0.2,0.1,0.4,0.1
				c0.5,0,0.8-0.7,1.3-0.8c2.3-0.7,4.1,7,4.6,9.2c-1.5-0.2-3.1-0.2-4.6,0c-1.6,0.6-3.2,1.5-4.6,2.7c-1.2,1-2.4,2.2-3.5,3.6
				c-0.6,0.8-1.1,1.6-1.6,2.5c-0.2,0.3-0.6,1.5-0.8,1.5H15.2c-0.1,0,0-25.3,0-27.8c0-5.6,1.1-11.1,3-15.9c1.6-3.7,3.9-6.6,6.7-8.4
				c1.1-0.7,3.6-1.1,4.4-2.6c1.4-2.5-0.5-4.5-2.2-4.5h-4.5c-2.8,0.1-5-3-5.1-6.9c0,0,0,0,0,0v-20.3c3.5,8.8,9.9,13.9,17,11.9
				c-0.1,1-0.5,5.3,0.5,5.7c1,0.4,1.4-4.4,1.6-5.2c0.2-1,0.7-1.9,1.4-2.2c0.8-0.7,1.7-1.2,2.6-1.5c1.6-0.1,3.1,0.9,4.1,2.6
				c0.3,0.5-1.3,2.2-1.5,2.7c-0.7,1.1-1.3,2.2-1.9,3.2c-0.6,1-1,1.8-1.4,2.8c-0.4,0.9,0.2,1.5,0.8,1.1c0.6-0.4,1-1.5,1.5-2
				c0.7-0.9,1.4-1.7,2.1-2.5c1.3-1.5,2.7-2.8,4.3-3.7c7.2-3.5,14.9,0.8,20.4,7.4c2.2,2.7,4.1,6,5.3,9.7c1.2,3.7,1.8,7.5,2.9,11.2
				C78.4,194.2,79.9,198.3,81.7,202.1L81.7,202.1z M70.3,212.1c-0.7,1.7-2.9,6.6-4.4,3.9c-0.6-1.1-0.5-2.7,0.3-3.6
				c0.1-0.1,0.1-0.1,0.2-0.2C67.5,210.9,69.1,210.9,70.3,212.1C69.6,213.7,70.2,212,70.3,212.1L70.3,212.1z M90.4,166.8
				c-0.5,3.3-2.3,5.9-4.6,6.6c-2.9,1.1-7.9-0.6-9.8,3.5c-1.1-3.2-2.5-6.1-4.2-8.8c-2.2-3.3-4.8-5.9-7.7-7.8c1.1-2,3.1-2.6,4.6-1.4
				c2.9,1.9,5.6,4.3,8.8,4.1c6.2-0.4,10.3-10.1,12.7-17.1L90.4,166.8z"/>
		</g>
	</g>
</g>
</svg>
