<svg id="icon-0" xmlns="http://www.w3.org/2000/svg" viewBox="0 0 550 343.8">
  <rect id="background" width="550" height="343.8" fill="none"/>
  <g id="tight-bounds">
    <g>
      <g>
        <path id="text-0" d="M182.32,184.41H165.93a14.78,14.78,0,0,1-4.42-.45c-.87-.34-1.3-.68-1.3-1.13h0l2.69-10.51a18.22,18.22,0,0,0,4.16.56c2.08.23,4.85.23,8.24.23h3.46a2.3,2.3,0,0,0,2.09-.79,4.79,4.79,0,0,0,.52-2.49h0V169a4.6,4.6,0,0,0-.52-2.71,2.54,2.54,0,0,0-2.09-.68h-10c-3,0-5.12-1-6.51-3.05a18.16,18.16,0,0,1-2-9.94h0v-2.94a32.08,32.08,0,0,1,.69-6.55,10.41,10.41,0,0,1,2.52-5,6.47,6.47,0,0,1,4.85-1.81h14.66a15.43,15.43,0,0,1,4.5.56c1.22.34,1.74.8,1.74,1.25h0l-1.3,10.05a37.57,37.57,0,0,0-4.68-.56c-2.34-.23-5.21-.23-8.67-.23h-3.21a2.19,2.19,0,0,0-1.91.68,4.24,4.24,0,0,0-.61,2.49h0v.56a4,4,0,0,0,.61,2.6,2.35,2.35,0,0,0,2,.68h9.72a11.87,11.87,0,0,1,4.76,1,6.6,6.6,0,0,1,3,3.85,25.16,25.16,0,0,1,1,8.24h0v2.94a24,24,0,0,1-1.74,9.94,6,6,0,0,1-5.89,3.73Zm21.41,0h-2.68a4.7,4.7,0,0,1-4.6-2.6,18.65,18.65,0,0,1-1.21-7.8h0v-15.7H191.6V148h1.82a1.43,1.43,0,0,0,1.21-.57,3.89,3.89,0,0,0,.61-1.92h0l.86-8.7h7.2v11.07h7.37V158.2H203.3v12.54a4.52,4.52,0,0,0,.52,2.71,2,2,0,0,0,1.56.68h4.42l.87,9.38c-.61.11-1.56.33-2.86.56a21,21,0,0,1-4.08.34Zm29.05,0H220.55a5.58,5.58,0,0,1-4.33-1.58,8.18,8.18,0,0,1-1.91-4.3,30,30,0,0,1-.43-6.32h0V160a35,35,0,0,1,.52-6.1,8.77,8.77,0,0,1,1.91-4.29,5.26,5.26,0,0,1,4.33-1.58h12.23a5.27,5.27,0,0,1,4.33,1.58,8.77,8.77,0,0,1,1.91,4.29,28.53,28.53,0,0,1,.43,6.1h0v12.21a50.17,50.17,0,0,1-.43,6.32,8.18,8.18,0,0,1-1.91,4.3,6.48,6.48,0,0,1-4.42,1.58ZM224,174.13h5.29c1.39,0,2.08-1.13,2.08-3.28h0v-9.26a7.24,7.24,0,0,0-.43-2.49,1.71,1.71,0,0,0-1.56-.79h-5.2a1.84,1.84,0,0,0-1.65.79,5.6,5.6,0,0,0-.52,2.49h0V171c0,2,.61,3.17,2,3.17Zm35.38,10.28h-8.33a6.08,6.08,0,0,1-4.51-1.58,8.49,8.49,0,0,1-2.16-4.3,30,30,0,0,1-.61-6.32h0V160a26.91,26.91,0,0,1,.61-6,9.36,9.36,0,0,1,2.16-4.41,6,6,0,0,1,4.43-1.7h5.63a24,24,0,0,1,7.46.8,4.31,4.31,0,0,1,2.69,1.58h0l-1.3,8.58c-.61,0-1.74-.22-3.39-.45a39.89,39.89,0,0,0-5.37-.34H254a1.84,1.84,0,0,0-1.65.79,5.77,5.77,0,0,0-.52,2.49h0v9.38a5.55,5.55,0,0,0,.44,2.48,1.59,1.59,0,0,0,1.64.79h2.26a29.35,29.35,0,0,0,5.63-.33c1.56-.34,2.69-.34,3.47-.57h0l2.69,7.68c0,.79-.69,1.47-2.17,2.26a11.53,11.53,0,0,1-6.41,1.36Zm34.68.79h0a8.66,8.66,0,0,1-3.73-.79,7.85,7.85,0,0,1-3-3.5h0l-1.73-3.28-1.73-3.28h0c-.44-.9-.87-1.69-1.13-2.14a2.78,2.78,0,0,0-.87-1,2.12,2.12,0,0,0-1.13-.34h0a1.08,1.08,0,0,0-1.12.34,7.83,7.83,0,0,0-.18,2.15h0v11h-8.06V133h8.06v27.57h1.3a1.77,1.77,0,0,0,1.39-1.13h0c.44-.9.87-1.81,1.22-2.71.52-1.25,1.12-2.71,1.82-4.3s1.21-2.93,1.73-4.29H296l-.69,2.49c-.69,1.58-1.47,3.39-2.43,5.42s-1.82,3.73-2.68,5.31a20.36,20.36,0,0,1-2.09,3.39h0a51.05,51.05,0,0,1,3.21,4.52,17.11,17.11,0,0,0,3.82,4.29h0a10.18,10.18,0,0,0,2.6,1.58,3.74,3.74,0,0,0,1.47.34h0L298,184.41a7.45,7.45,0,0,1-1.48.56,16.51,16.51,0,0,1-2.42.23Zm39.71-.79H317.4a11.2,11.2,0,0,1-4.34-.57c-.95-.33-1.38-.67-1.38-1.13h0l2.68-10.5a19,19,0,0,0,4.17.56c2.08.23,4.85.23,8.23.23h3.47a2.3,2.3,0,0,0,2.08-.79,4.62,4.62,0,0,0,.52-2.49h0v-.79a4.43,4.43,0,0,0-.52-2.71,2.49,2.49,0,0,0-2.08-.68H320.17q-4.41,0-6.5-3a18.16,18.16,0,0,1-2-9.94h0v-2.94a32.08,32.08,0,0,1,.69-6.55,10.45,10.45,0,0,1,2.52-5,6.45,6.45,0,0,1,4.85-1.8h14.65a14.86,14.86,0,0,1,4.42.56c1.22.34,1.83.79,1.83,1.24h0l-1.31,10.06a35.66,35.66,0,0,0-4.68-.56c-2.25-.23-5.2-.23-8.67-.23h-3.12A2.17,2.17,0,0,0,321,148a4.2,4.2,0,0,0-.6,2.48h0v.57a4,4,0,0,0,.6,2.6,2.32,2.32,0,0,0,2,.67h9.71a11.73,11.73,0,0,1,4.77,1,6.57,6.57,0,0,1,3,3.84,25.22,25.22,0,0,1,1,8.25h0v2.94a24.19,24.19,0,0,1-1.73,9.94,6,6,0,0,1-5.9,3.73Zm28,0h-8.41a6.08,6.08,0,0,1-4.51-1.58,8.58,8.58,0,0,1-2.17-4.3,30.72,30.72,0,0,1-.6-6.32h0V160a27.52,27.52,0,0,1,.6-6,9.46,9.46,0,0,1,2.17-4.41,6,6,0,0,1,4.42-1.7h5.64a24.07,24.07,0,0,1,7.46.8,4.29,4.29,0,0,1,2.68,1.58h0l-1.3,8.58c-.6,0-1.73-.22-3.38-.45a40,40,0,0,0-5.37-.34h-2.69a1.84,1.84,0,0,0-1.65.79,5.63,5.63,0,0,0-.52,2.49h0v9.38a5.7,5.7,0,0,0,.43,2.48,1.6,1.6,0,0,0,1.65.79h2.34a29.51,29.51,0,0,0,5.64-.33c1.56-.34,2.69-.34,3.47-.57h0l2.68,7.68c0,.79-.69,1.47-2.16,2.26a11.73,11.73,0,0,1-6.42,1.36Zm19.77,0H373.5V148h6.24l1.64,1.58a6.64,6.64,0,0,1,5.38-2.49h0a9.72,9.72,0,0,1,3.9.79,15.1,15.1,0,0,1,2.69,1.81,5.47,5.47,0,0,1,1.3,1.36h0l-2.17,10.62a12.21,12.21,0,0,0-1.64-1.58,19.75,19.75,0,0,0-2.87-1.81,7.4,7.4,0,0,0-3.46-.79H384a2.27,2.27,0,0,0-1.91.79,5.88,5.88,0,0,0-.7,3.39h0Zm32.34,0h-9.37a6,6,0,0,1-4.5-1.58,8.42,8.42,0,0,1-2.17-4.3,30,30,0,0,1-.61-6.32h0V160a26.91,26.91,0,0,1,.61-6,9.87,9.87,0,0,1,2.17-4.41,6,6,0,0,1,4.42-1.7h9.1a8.46,8.46,0,0,1,5.29,1.47,7.31,7.31,0,0,1,2.51,4.18,30.16,30.16,0,0,1,.7,6.33h0v10.4h-7.72a27.83,27.83,0,0,1-6-.34c-1.39-.34-2.34-.34-2.86-.46h0v1.25c0,2.14.69,3.27,2.08,3.27h1.3a59.41,59.41,0,0,0,6.5-.33c2-.23,3.47-.34,4.42-.57h0l2.69,7.68a2.31,2.31,0,0,1-.78,1.59,7,7,0,0,1-2.6,1.24,13.6,13.6,0,0,1-5.2.79Zm-8.41-22.82v1.13H414v-1.13a12.23,12.23,0,0,0-.17-2.49c-.09-.45-.43-.68-.95-.79a16.28,16.28,0,0,0-2.69-.11h-2.6c-1.39,0-2.08,1-2.08,3.27ZM443,184.41h-9.36a6.05,6.05,0,0,1-4.51-1.58,8.42,8.42,0,0,1-2.17-4.3,30.72,30.72,0,0,1-.61-6.32h0V160.12a27,27,0,0,1,.7-6,10,10,0,0,1,2.16-4.41,6,6,0,0,1,4.43-1.69h9.1a8.42,8.42,0,0,1,5.29,1.47,7.31,7.31,0,0,1,2.51,4.18,30.07,30.07,0,0,1,.7,6.32h0v10.4h-7.72a27.83,27.83,0,0,1-6-.34,28.76,28.76,0,0,0-2.86-.45h0v1.24c0,2.15.69,3.28,2.08,3.28h1.3a59.29,59.29,0,0,0,6.5-.34c2-.23,3.47-.34,4.42-.57h0l2.69,7.69a2.31,2.31,0,0,1-.78,1.58,5.36,5.36,0,0,1-2.69,1.24,11.37,11.37,0,0,1-5.2.68Zm-8.32-22.82v1.13h8.49v-1.13a9.57,9.57,0,0,0-.17-2.26c-.09-.46-.43-.68-.95-.79a14.93,14.93,0,0,0-2.69-.12h-2.52C435.4,158.31,434.71,159.44,434.71,161.59Zm29.56,22.82h-8.15V148h6.42l1.73,1.58a28.08,28.08,0,0,1,4.51-1.13,26,26,0,0,1,4.94-.45h2.17a4.39,4.39,0,0,1,3.38,1.13A6.37,6.37,0,0,1,481,152a14.35,14.35,0,0,1,.61,3.5c.09,1,.09,1.93.09,2.94h0v26h-8.07V161.47c0-2.14-.69-3.27-2.08-3.27h-5.89a1.19,1.19,0,0,0-1,.22,2.58,2.58,0,0,0-.26,1.47h0Zm38.58,0h-9.36a5.75,5.75,0,0,1-4.42-1.58,8.42,8.42,0,0,1-2.17-4.3,30.72,30.72,0,0,1-.61-6.32h0V160.12a27.55,27.55,0,0,1,.61-6,9.32,9.32,0,0,1,2.17-4.41,6,6,0,0,1,4.42-1.69h9.1a8.4,8.4,0,0,1,5.29,1.47,7.32,7.32,0,0,1,2.52,4.18,30.74,30.74,0,0,1,.69,6.32h0v10.4h-7.72a27.88,27.88,0,0,1-6-.34,28.76,28.76,0,0,0-2.86-.45h0v1.24c0,2.15.69,3.28,2.08,3.28h1.3a39.48,39.48,0,0,0,6.5-.34c2-.34,3.47-.34,4.43-.57h0l2.68,7.69a2.31,2.31,0,0,1-.78,1.58,6.66,6.66,0,0,1-2.6,1.24,14.16,14.16,0,0,1-5.29.68Zm-8.41-22.82v1.13h8.5v-1.13a9.57,9.57,0,0,0-.17-2.26c-.09-.46-.44-.68-1-.79a14.87,14.87,0,0,0-2.69-.12h-2.51c-1.47-.11-2.17,1-2.17,3.17ZM524,184.41h-8.07V148h6.25l1.64,1.58a6.64,6.64,0,0,1,5.38-2.49h0a9.72,9.72,0,0,1,3.9.79,15.1,15.1,0,0,1,2.69,1.81,5.47,5.47,0,0,1,1.3,1.36h0l-2.17,10.62a12.21,12.21,0,0,0-1.64-1.58,19.75,19.75,0,0,0-2.87-1.81,7.4,7.4,0,0,0-3.46-.79h-.52a2.27,2.27,0,0,0-1.91.79,5.88,5.88,0,0,0-.7,3.39h0Z" fill="#f5e8d5"/>
        <path id="text-1" d="M162.94,215.13v1.52c.38-2.15,1.61-3.49,2.92-3.31h0a.68.68,0,0,1,.62.36,1.63,1.63,0,0,1,.23.8,1.43,1.43,0,0,1-.23.81c-.23.27-.47.45-.77.36a2,2,0,0,0-1.16.35,2.37,2.37,0,0,0-.92,1.08h0a9.34,9.34,0,0,0-.77,3.94h0v8.68a1.41,1.41,0,0,1-.31,1,1.17,1.17,0,0,1-.53.36h-.39c-.07-.09-.23-.18-.31-.27h0a1.13,1.13,0,0,1-.23-.89h0V215a2,2,0,0,1,.23-1c.16-.27.39-.45.62-.36a.66.66,0,0,1,.61.36,1.52,1.52,0,0,1,.39,1.07Zm15.3,6.89h0q0,.94-.69,1.08h-7.69c-.15,2.59.77,5.1,2.23,6.08h0a4,4,0,0,0,1.31.36h0a4.47,4.47,0,0,0,3.15-2h0a.46.46,0,0,1,.84,0h0a.61.61,0,0,1,.08.54h0a3.17,3.17,0,0,1-.15.89h0a4.64,4.64,0,0,1-4.08,2.51h0c-1.38.09-2.69-.81-3.69-2.42h0a12.63,12.63,0,0,1-1.54-6.71h0a13.24,13.24,0,0,1,1.31-6.36h0c.92-1.87,2.31-3,3.85-2.77h0c1.38-.18,2.76.72,3.76,2.42h0A13,13,0,0,1,178.24,222Zm-8.3-.89h6.61a9,9,0,0,0-1-4.12h0a2.57,2.57,0,0,0-2.38-1.43h0a2.87,2.87,0,0,0-2.31,1.7h0a9.7,9.7,0,0,0-.92,3.85Zm16.53,9.13h0c0,.89-.69,1.43-2,1.43h0a2.16,2.16,0,0,1-2.08-1.34h0a11.91,11.91,0,0,1-.69-4.75h0v-9.66h-1.15a.57.57,0,0,1-.54-.36,1.15,1.15,0,0,1-.23-.72h0a2,2,0,0,1,.15-.71c.16-.27.39-.45.54-.36h1.31l.15-5a1.25,1.25,0,0,1,.31-.8.65.65,0,0,1,.54-.27c.38-.09.61.36.69,1v.17h0v5h1.92a.57.57,0,0,1,.54.35,1.87,1.87,0,0,1,.15.72h0a2.89,2.89,0,0,1-.15.81c-.15.18-.31.35-.54.26h-1.92v8.15a24.73,24.73,0,0,0,.15,4.12,1.58,1.58,0,0,0,.46,1,1.19,1.19,0,0,0,.77.27h0l1.08-.18a.49.49,0,0,1,.46.36,3.55,3.55,0,0,1,.08.54Zm9.22-.27V220a6.45,6.45,0,0,0-.69-3.31h0a1.8,1.8,0,0,0-1.54-1A3,3,0,0,0,192,216a2.13,2.13,0,0,0-1,1.08h0a7.25,7.25,0,0,0-.92,4.21h0v8.86a1.48,1.48,0,0,1-.31,1,.89.89,0,0,1-.61.36h0a.57.57,0,0,1-.54-.36,2.06,2.06,0,0,1-.23-1h0V207.61a1.48,1.48,0,0,1,.31-1,1.76,1.76,0,0,1,.54-.36h0a.93.93,0,0,1,.61.27,1.43,1.43,0,0,1,.23,1h0v9.4a4.81,4.81,0,0,1,1.46-2.51h0a3,3,0,0,1,1.92-.8,3.53,3.53,0,0,1,1.62.36,2.92,2.92,0,0,1,1.15,1.16h0a10,10,0,0,1,1.16,5.19h0v9.76a1.48,1.48,0,0,1-.31,1,1.54,1.54,0,0,1-.62.36h0a.66.66,0,0,1-.61-.36,1.76,1.76,0,0,1-.16-1.07Zm7-22.38h0a1.81,1.81,0,0,1-.31,1.16c-.23.36-.53.54-.84.45a.93.93,0,0,1-.85-.45,1.81,1.81,0,0,1-.3-1.16h0a1.57,1.57,0,0,1,.3-1.07.78.78,0,0,1,.85-.45.91.91,0,0,1,.84.45,1.34,1.34,0,0,1,.31,1.07Zm-2,22.29V215.22a1.55,1.55,0,0,1,.31-1.07.57.57,0,0,1,.54-.36h.38l.31.36h0a1.32,1.32,0,0,1,.31,1h0v14.68a1.33,1.33,0,0,1-.31,1,.66.66,0,0,1-.61.36h0c-.24,0-.39-.09-.62-.36a2.07,2.07,0,0,1-.31-.89Zm5.08,0V215a1.45,1.45,0,0,1,.3-1,.66.66,0,0,1,.54-.36h0c.31-.09.62.27.77.71a6.94,6.94,0,0,1,.08,2.24h0a4.93,4.93,0,0,1,1.46-2.41h0a3,3,0,0,1,1.92-.9,3.53,3.53,0,0,1,1.62.36,3.33,3.33,0,0,1,1.15,1.25h0a9.9,9.9,0,0,1,1.15,5.19h0v9.76a1.45,1.45,0,0,1-.3,1,1.54,1.54,0,0,1-.62.36h0c-.23,0-.38-.09-.61-.36a1.71,1.71,0,0,1-.23-1h0v-9.94a6.55,6.55,0,0,0-.7-3.31h0a2.06,2.06,0,0,0-1.69-1.07h0a3.12,3.12,0,0,0-2.31,1.25h0a7.54,7.54,0,0,0-.92,4.21h0v8.86a1.41,1.41,0,0,1-.31,1,.89.89,0,0,1-.61.36h0a.57.57,0,0,1-.54-.36,1.09,1.09,0,0,1-.15-.89Zm19.37.8-5.3-8.95v8.06a1.82,1.82,0,0,1-.23,1,.68.68,0,0,1-.62.36c-.23,0-.38-.09-.61-.36a1.92,1.92,0,0,1-.23-1h0V207.43a2.31,2.31,0,0,1,.23-1.07,1.2,1.2,0,0,1,.54-.36h.38a.42.42,0,0,1,.31.27h0a2.21,2.21,0,0,1,.23,1.07h0v13.34l4.84-6.71c.16-.27.31-.45.54-.45h0a.57.57,0,0,1,.54.36,1.12,1.12,0,0,1,.23.71h0a1.74,1.74,0,0,1-.23.9h0l-4.15,5.73,4.76,7.87a1.83,1.83,0,0,1,.16.63,1.71,1.71,0,0,1-.08.63,1.17,1.17,0,0,1-.23.35h0a.64.64,0,0,1-.54.36c-.15.09-.31-.09-.54-.36Zm13-8.77h0q0,.94-.69,1.08h-7.69c-.16,2.59.77,5.1,2.23,6.08h0a4,4,0,0,0,1.3.36h0a4.47,4.47,0,0,0,3.16-2h0a.46.46,0,0,1,.84,0h0a.61.61,0,0,1,.08.54h0a2.66,2.66,0,0,1-.15.89h0a4.64,4.64,0,0,1-4.08,2.51h0c-1.38.09-2.69-.81-3.69-2.42h0a12.54,12.54,0,0,1-1.54-6.71h0a13.17,13.17,0,0,1,1.31-6.35h0c.92-1.88,2.31-3,3.84-2.78h0c1.39-.18,2.77.72,3.77,2.42h0a11.73,11.73,0,0,1,1.31,6.35Zm-8.31-.89h6.62a9,9,0,0,0-1-4.12h0a2.59,2.59,0,0,0-2.39-1.43h0a2.87,2.87,0,0,0-2.3,1.7h0a9.91,9.91,0,0,0-.93,3.85Zm18.46,8.86v-1.61c-.85,2.06-2.31,3.31-3.85,3.31h0c-1.38.09-2.61-1-3.38-2.86h0a18.33,18.33,0,0,1-1.08-6.27h0c0-4.12.85-6.89,2.46-8.32h0a2.76,2.76,0,0,1,1.7-.81,7.25,7.25,0,0,1,1.38.18,2,2,0,0,1,1.08.63h0a5.1,5.1,0,0,1,1.61,2.41h0v-9.13a1.33,1.33,0,0,1,.31-1,.79.79,0,0,1,.61-.27h0a1,1,0,0,1,.62.27,1.43,1.43,0,0,1,.23,1h0V230a1.48,1.48,0,0,1-.31,1,1.2,1.2,0,0,1-.54.36h-.38c-.08-.09-.23-.18-.31-.27h0c0-.36-.15-.71-.15-1.16Zm-3.46-.54h0c2.3,0,3.46-2.42,3.46-7.25h0c0-3.13-.54-5.1-1.69-6.09h0a2.54,2.54,0,0,0-1.54-.53c-1-.09-1.92.71-2.46,2.15h0a11,11,0,0,0-.69,4.56h0a12.21,12.21,0,0,0,1.15,6h0c.46.89,1.15,1.34,1.77,1.16Z" fill="#aa5377"/>
      </g>
      <g>
        <path d="M97.41,168.87a55.13,55.13,0,0,1-7-10.51c-1.88-4-2.9-9.33-6.49-11.69-4.79-3-9.23,2.51-13.34,4.58a7.23,7.23,0,0,1-5.47,1c-1.19-.44-2.22-1.92-3.25-1.78a2.3,2.3,0,0,0-1.53,2.37,1.57,1.57,0,0,0,.51,1.19,24.29,24.29,0,0,1,6.32,11.39,18,18,0,0,0,6.33,11.4c4.79,3.55,9.57.15,13.85-2.81A8.41,8.41,0,0,1,95,171.83c.85.44,1.71,1,2.56.29a2.68,2.68,0,0,0,.35-3,.89.89,0,0,1-.52-.29C96.39,167.68,97.75,169.31,97.41,168.87Zm-9.91.44a32.3,32.3,0,0,1-8.72,5.18c-2.74.3-5.3-1.33-6.67-4.29-2.22-4-4.1-11.69,0-14.95a27.53,27.53,0,0,1,7.52-4.74c2.57-.88,4.28,1.93,5.3,4.59.69,1.63,1.2,3.26,1.88,5,.35.6,1.88,4.44,2.4,4.44,2.05,1.93-.17,3.85-1.71,4.74Z" fill="#53a2a9"/>
        <path d="M150.24,66c-3.42,0-3.42,4-3.76,7a121.41,121.41,0,0,1-2.57,13.61,81.25,81.25,0,0,1-7.18,18.36c-2.56,5-6.66,12-12.31,12-7,0-12.13-8-19.31-7A10.72,10.72,0,0,0,99,113.22c-.34.44-.68.74-1,1.18-1,1.18-1,1.48-2.23,1a30.9,30.9,0,0,0-20.34-.74l-1.88.59a15.65,15.65,0,0,0-1.37-1.63,14.45,14.45,0,0,0-3.42-2.81,11.54,11.54,0,0,0-9.57-1.48c-3.08.89-5.64,3.4-8.55,4.29a18.72,18.72,0,0,1-9.91,0,19.25,19.25,0,0,1-9.92-8.14,59.86,59.86,0,0,1-8.21-25.76A38.25,38.25,0,0,1,22,73.55c0-2.37-1.54-4.15-3.42-4.15s-3.42,1.93-3.42,4.3v61c0,8.14,4.28,15.24,10.6,17.46-9.06,8.14-12.65,21.17-14.36,34.34a143.29,143.29,0,0,0-.17,14.8v27.38c0,4.15-1.2,12.14,3.93,12.14h47c2.39,0,3.07-2.37,4.27-4.44a25.74,25.74,0,0,1,11.11-10.21,17.9,17.9,0,0,1,7.87-.89c1.36,0,1.88,1.63,2.9,2.81a36.12,36.12,0,0,0,5.81,6.07,15.16,15.16,0,0,0,16.93,1.78c1.71-.74,4.79-4.15,6.33-3.56A19.28,19.28,0,0,0,127.84,234c5.82-.89,10.94-4.44,14.88-9.77a26.65,26.65,0,0,0,6.15-16.72,46.66,46.66,0,0,0-5.3-18.8c-2.22-4.74-5.13-9.18-7.52-13.91A104,104,0,0,1,129,157a23.15,23.15,0,0,1-1.2-5.92c0-2.37,4.45-1.48,5.82-1.63a21,21,0,0,0,15.9-7.25A22.19,22.19,0,0,0,154,128.61V79.32c-.51-3.11.85-13.17-3.76-13.32ZM131.78,183.52c2.22,3.85,4.44,7.7,6.32,11.84,1.88,4.44,4.1,9.77,3.59,14.95s-4.61,10.06-7.86,12.73a13.7,13.7,0,0,1-15.56,1.33c3.93-5.62,6.15-12.73,3.25-19.68-2.4-5.63-7.7-13-13.51-12-5.3.88-9.57,8.43-5.64,14.21,4.62,6.51,10.09-.74,12.65-5.92,2.91,3.7,5.64,8.73,4.1,13.91a27.84,27.84,0,0,1-6.32,10.36,12.82,12.82,0,0,1-9.57,4.74,15.15,15.15,0,0,1-10.09-7.26c-1-1.33-1.71-3-2.74-4.29a74.75,74.75,0,0,0-3.07-8.58c-1.71-4.3-4.45-11-9.24-10.22A4.22,4.22,0,0,0,74.85,202a2.22,2.22,0,0,0,.85,2.67c.17.14.34.14.69.14.85,0,1.36-1,2.22-1.18,3.93-1,7,10.36,7.86,13.62a34.43,34.43,0,0,0-7.86,0,27.56,27.56,0,0,0-7.87,4,38.72,38.72,0,0,0-6,5.33,32.17,32.17,0,0,0-2.74,3.7c-.34.45-1,2.22-1.36,2.22H18.09c-.17,0,0-37.45,0-41.15a57.08,57.08,0,0,1,5.13-23.53A28.41,28.41,0,0,1,34.67,155.4c1.88-1,6.16-1.63,7.52-3.85,2.4-3.7-.85-6.66-3.76-6.66H30.74C26,145,22.19,140.45,22,134.68h0V104.63c6,13,16.93,20.57,29.06,17.61-.17,1.48-.85,7.85.86,8.44s2.39-6.51,2.73-7.7a4.41,4.41,0,0,1,2.4-3.25,13.42,13.42,0,0,1,4.44-2.22,8,8,0,0,1,7,3.85c.51.74-2.22,3.25-2.56,4-1.2,1.63-2.23,3.26-3.25,4.74a25.17,25.17,0,0,0-2.39,4.14c-.69,1.33.34,2.22,1.36,1.63s1.71-2.22,2.57-3c1.19-1.33,2.39-2.52,3.59-3.7a27.76,27.76,0,0,1,7.35-5.48c12.31-5.18,25.47,1.19,34.87,11A43.34,43.34,0,0,1,119.12,149c2.06,5.48,3.08,11.1,5,16.58a107.29,107.29,0,0,0,7.7,17.91Zm-19.49,14.8c-1.2,2.52-5,9.77-7.53,5.77a4.41,4.41,0,0,1,.52-5.32l.34-.3a4.69,4.69,0,0,1,6.67-.15c-1.2,2.37-.17-.15,0,0Zm34.36-67c-.86,4.89-3.93,8.74-7.87,9.77-4.95,1.63-13.5-.89-16.75,5.18a58.75,58.75,0,0,0-7.18-13,43.94,43.94,0,0,0-13.16-11.55c1.88-3,5.3-3.85,7.86-2.07,5,2.81,9.57,6.36,15,6.07,10.59-.59,17.6-15,21.71-25.31Z" fill="#53a2a9"/>
      </g>
    </g>
  </g>
</svg>
