<svg id="icon-0" xmlns="http://www.w3.org/2000/svg" viewBox="0 0 550 343.8">
  <rect id="background" width="550" height="343.8" fill="none"/>
  <g id="tight-bounds">
    <g>
      <path d="M310.52,198.76a96.19,96.19,0,0,1-15.77-17.85c-4.24-6.8-6.53-15.85-14.62-19.86-10.79-5.1-20.79,4.26-30,7.78a20.86,20.86,0,0,1-12.32,1.7c-2.68-.75-5-3.26-7.32-3-2.24.59-3.66,2.24-3.45,4a2.4,2.4,0,0,0,1.15,2c7,5.36,11.91,12,14.24,19.35,1.37,7.58,6.46,14.49,14.25,19.37,10.79,6,21.56.26,31.2-4.77a23.4,23.4,0,0,1,17.26-3.71c1.91.75,3.85,1.7,5.77.5a3.71,3.71,0,0,0,.78-5.1,2.29,2.29,0,0,1-1.17-.49C308.22,196.74,311.28,199.51,310.52,198.76Zm-22.33.75a80.1,80.1,0,0,1-19.64,8.8,15.86,15.86,0,0,1-15-7.29c-5-6.79-9.24-19.86,0-25.39a67.55,67.55,0,0,1,16.94-8.06c5.79-1.49,9.64,3.28,11.94,7.8,1.55,2.77,2.7,5.54,4.23,8.5.79,1,4.24,7.54,5.41,7.54,4.61,3.28-.39,6.54-3.86,8.05Z" fill="#53a2a9"/>
      <path d="M429.53,24c-7.71,0-7.71,6.8-8.47,11.89A162.2,162.2,0,0,1,415.27,59a120.36,120.36,0,0,1-16.18,31.2c-5.76,8.49-15,20.38-27.73,20.38-15.77,0-27.32-13.59-43.5-11.89a27.25,27.25,0,0,0-13.76,5.52c-.77.75-1.53,1.26-2.25,2-2.26,2-2.26,2.51-5,1.7A91,91,0,0,0,261,106.67l-4.23,1a30.58,30.58,0,0,0-3.09-2.77,32,32,0,0,0-7.7-4.77,33.34,33.34,0,0,0-21.56-2.52c-6.94,1.51-12.7,5.78-19.26,7.29a55.55,55.55,0,0,1-22.32,0c-9.33-2.55-17.22-7.43-22.35-13.83C150,77.74,143.65,62.77,142,47.31a49.76,49.76,0,0,1-1.36-10.48c0-4-3.47-7-7.7-7a7.52,7.52,0,0,0-7.7,7.3V140.71c0,13.83,9.64,25.89,23.87,29.67-20.41,13.83-28.49,36-32.34,58.34a183.45,183.45,0,0,0-.39,25.14v46.52c0,7.05-2.7,20.62,8.86,20.62H231.11c5.39,0,6.92-4,9.62-7.54,5.86-7.54,14.58-13.58,25-17.35a52.91,52.91,0,0,1,17.73-1.51c3.06,0,4.23,2.77,6.53,4.77a74.13,74.13,0,0,0,13.09,10.32c10.69,6.8,25.8,8,38.14,3,3.85-1.26,10.79-7,14.25-6a56.22,56.22,0,0,0,23.57,2.75,55.62,55.62,0,0,0,33.52-16.59c8.8-8,13.69-18,13.85-28.41a65.21,65.21,0,0,0-11.94-31.94c-5-8.05-11.55-15.59-16.94-23.63a154.65,154.65,0,0,1-15.88-30.24,31,31,0,0,1-2.7-10.06c0-4,10-2.51,13.11-2.77,13.74,0,26.82-4.48,35.82-12.31,6.65-6.65,10.2-14.77,10.09-23.09V46.63C436.85,41.35,439.91,24.25,429.53,24ZM387.94,223.65a224.35,224.35,0,0,1,14.24,20.12c4.24,7.54,9.24,16.6,8.09,25.4s-10.39,17.09-17.71,21.62c-9.91,6.2-23.89,7.1-35.05,2.26,8.85-9.54,13.85-21.62,7.32-33.43-5.41-9.57-17.35-22.09-30.43-20.39-11.94,1.5-21.56,14.32-12.71,24.14,10.41,11.06,22.73-1.25,28.5-10.05,6.55,6.28,12.7,14.83,9.23,23.63a47.37,47.37,0,0,1-14.23,17.6c-5.29,4.92-13.16,7.86-21.56,8.05-9.57-1.47-17.84-6-22.73-12.33-2.25-2.26-3.85-5.1-6.17-7.29a108.17,108.17,0,0,0-6.92-14.58c-3.85-7.3-10-18.69-20.81-17.36a9.7,9.7,0,0,0-7.3,4c-.87,1.66-.07,3.56,1.91,4.54a2.87,2.87,0,0,0,1.56.23c1.91,0,3.06-1.7,5-2,8.85-1.7,15.77,17.6,17.7,23.14a102.57,102.57,0,0,0-17.7,0,71.33,71.33,0,0,0-17.73,6.79,84.12,84.12,0,0,0-13.52,9.06,59.83,59.83,0,0,0-6.17,6.28c-.76.77-2.25,3.78-3.06,3.78H131.84c-.39,0,0-63.63,0-69.91a77.36,77.36,0,0,1,11.55-40c5.56-8.84,14.56-16.2,25.8-21.1,4.23-1.7,13.87-2.77,16.94-6.54,5.4-6.29-1.92-11.31-8.47-11.31H160.33c-10.68.18-19.26-7.55-19.69-17.35h0V89.63c13.52,22.08,38.14,34.94,65.47,29.92-.39,2.51-1.92,13.33,1.93,14.33s5.39-11.06,6.15-13.08c.52-2.39,2.53-4.45,5.41-5.52a35.16,35.16,0,0,1,10-3.77c6.43-.1,12.44,2.4,15.77,6.54,1.15,1.26-5,5.52-5.77,6.8-2.7,2.77-5,5.53-7.32,8.05a41.8,41.8,0,0,0-5.38,7c-1.56,2.26.77,3.77,3.06,2.77s3.85-3.77,5.79-5.1c2.68-2.25,5.39-4.28,8.09-6.28A64.22,64.22,0,0,1,260.4,122c27.73-8.8,57.37,2,78.55,18.69A74.55,74.55,0,0,1,359.42,165c4.64,9.31,6.94,18.86,11.27,28.17A162.65,162.65,0,0,0,388,223.6ZM344,248.8c-2.7,4.28-11.27,16.6-17,9.8-2.36-2.87-1.88-6.57,1.17-9l.76-.51a13.13,13.13,0,0,1,14.94-.32l.09.07C341.34,252.82,343.66,248.54,344,248.8ZM421.44,135a22.41,22.41,0,0,1-17.73,16.6c-11.15,2.77-30.41-1.51-37.73,8.8a89.29,89.29,0,0,0-45.82-41.71,14.7,14.7,0,0,1,17.71-3.51c11.26,4.77,21.55,10.8,33.79,10.31,23.85-1,39.64-25.49,48.9-43Z" fill="#53a2a9"/>
    </g>
  </g>
</svg>
