<svg id="icon-0" xmlns="http://www.w3.org/2000/svg" viewBox="0 0 550 343.75">
  <rect id="background" width="550" height="343.75" fill="none"/>
  <g id="tight-bounds">
    <g>
      <g>
        <path id="text-0" d="M128.87,184.46H110A20.71,20.71,0,0,1,105,184c-1-.28-1.55-.61-1.55-1h0l3.1-9.28a35.08,35.08,0,0,0,4.83.55c2.44.17,5.6.24,9.48.24h4a3.19,3.19,0,0,0,2.4-.7,3.28,3.28,0,0,0,.61-2.19h0V171a3.6,3.6,0,0,0-.61-2.39,3.42,3.42,0,0,0-2.4-.64H113.21c-3.42,0-5.9-.9-7.46-2.71a13.31,13.31,0,0,1-2.34-8.76h0v-2.58a19.44,19.44,0,0,1,.84-5.83,7.91,7.91,0,0,1,8.45-6h16.85a21.5,21.5,0,0,1,5.17.51c1.37.32,2.05.67,2.05,1.07h0l-1.55,8.91c-.95-.15-2.74-.3-5.36-.48s-6-.24-10-.24h-3.65a2.41,2.41,0,0,0-3,2.78h0v.5a3.14,3.14,0,0,0,.71,2.3,3.25,3.25,0,0,0,2.29.64h11.18A14.75,14.75,0,0,1,133,159a6.7,6.7,0,0,1,3.5,3.42,17,17,0,0,1,1.22,7.29h0v2.58a17.07,17.07,0,0,1-2,8.76c-1.32,2.19-3.57,3.31-6.79,3.31Zm24.77,0h-3.1q-3.85,0-5.28-2.3a13.51,13.51,0,0,1-1.42-6.9h0V161.33h-4.16v-9.06h2.13a2,2,0,0,0,1.4-.48,2.57,2.57,0,0,0,.68-1.67h0l1-7.69h8.33v9.84h8.48v9.06h-8.48v11.13a3.33,3.33,0,0,0,.6,2.36,2.51,2.51,0,0,0,1.83.59h5.08l1,8.32c-.72.15-1.8.3-3.25.46a39.71,39.71,0,0,1-4.77.27Zm33.46,0H173a7.88,7.88,0,0,1-5-1.36,6.56,6.56,0,0,1-2.21-3.79,26.34,26.34,0,0,1-.53-5.56h0V162.91a24.53,24.53,0,0,1,.56-5.43,6.9,6.9,0,0,1,2.2-3.81,7.5,7.5,0,0,1,5-1.4h14.12a7.48,7.48,0,0,1,5,1.4,6.77,6.77,0,0,1,2.18,3.81,24.53,24.53,0,0,1,.54,5.43h0v10.84a25.7,25.7,0,0,1-.54,5.56,6.59,6.59,0,0,1-2.18,3.79,7.8,7.8,0,0,1-5,1.36ZM177,175.41h6.05c1.63,0,2.42-1,2.39-2.89h0v-8.23a3.69,3.69,0,0,0-.55-2.19,2.15,2.15,0,0,0-1.84-.7h-6a2.27,2.27,0,0,0-1.89.7,3.54,3.54,0,0,0-.55,2.19h0v8.32c0,1.84.76,2.8,2.38,2.8Zm40.8,9.05H208.2A8.53,8.53,0,0,1,203,183.1a6.83,6.83,0,0,1-2.46-3.79,20.56,20.56,0,0,1-.66-5.56h0V162.91a19.08,19.08,0,0,1,.69-5.3,7.59,7.59,0,0,1,2.46-3.88,7.75,7.75,0,0,1,5.13-1.46h6.54a36.5,36.5,0,0,1,8.59.72,5.29,5.29,0,0,1,3.1,1.44h0l-1.55,7.6c-.71,0-2-.24-3.85-.41s-3.92-.29-6.19-.29h-3.1a2.33,2.33,0,0,0-1.89.7,3.54,3.54,0,0,0-.55,2.19h0v8.32a3.71,3.71,0,0,0,.51,2.19,2.17,2.17,0,0,0,1.93.73h2.59a47,47,0,0,0,6.48-.27c1.84-.26,3.1-.32,4-.46h0l3.09,6.84c0,.65-.83,1.31-2.5,2a22.39,22.39,0,0,1-7.51,1Zm39.93.72h0a12.12,12.12,0,0,1-4.35-.72,8.32,8.32,0,0,1-3.53-3.09h0l-2-2.87-2.05-2.87h0c-.54-.83-1-1.47-1.31-1.92a3.06,3.06,0,0,0-1-.92,2.92,2.92,0,0,0-1.35-.27h0a1.77,1.77,0,0,0-1.32.31,4.94,4.94,0,0,0-.2,1.93h0v9.7h-9.28V139h9.28v24.36h1.55a2.18,2.18,0,0,0,1.63-1h0c.49-.76,1-1.56,1.39-2.39.63-1.14,1.32-2.41,2.06-3.81s1.42-2.65,2-3.81H260l-.8,2.19c-.83,1.45-1.75,3-2.82,4.75s-2.11,3.31-3.1,4.73a20.31,20.31,0,0,1-2.41,3h0a44.07,44.07,0,0,1,3.7,4,16.91,16.91,0,0,0,4.42,3.77h0a11.94,11.94,0,0,0,3,1.4,8.85,8.85,0,0,0,1.75.33h0l-1.42,7.9a8.73,8.73,0,0,1-1.69.48,15.22,15.22,0,0,1-2.85.29Zm45.86-.72H284.78a20.81,20.81,0,0,1-5-.46q-1.62-.42-1.62-1h0l3.09-9.28a35.64,35.64,0,0,0,4.83.54c2.45.18,5.6.25,9.49.25h4a3.16,3.16,0,0,0,2.4-.71,3.24,3.24,0,0,0,.6-2.19h0v-.7a3.64,3.64,0,0,0-.6-2.38,3.35,3.35,0,0,0-2.4-.64H287.92q-5.13,0-7.46-2.71a13.31,13.31,0,0,1-2.33-8.76h0v-2.59A19.06,19.06,0,0,1,279,148a8.83,8.83,0,0,1,2.86-4.38,8.71,8.71,0,0,1,5.59-1.6h16.87a21.76,21.76,0,0,1,5.14.5c1.38.33,2.08.68,2.08,1.08h0L310,152.53c-.95-.15-2.74-.31-5.36-.48s-6-.24-10-.24H291a3.26,3.26,0,0,0-2.23.59,3.16,3.16,0,0,0-.71,2.19h0v.5a3,3,0,0,0,.71,2.3A3.2,3.2,0,0,0,291,158h11.18a14.75,14.75,0,0,1,5.54.94,6.72,6.72,0,0,1,3.5,3.41,17.05,17.05,0,0,1,1.22,7.3h0v2.58a16.86,16.86,0,0,1-2,8.76c-1.3,2.19-3.56,3.31-6.76,3.31Zm32.23,0h-9.68A8.5,8.5,0,0,1,321,183.1a6.78,6.78,0,0,1-2.46-3.79,21,21,0,0,1-.67-5.56h0V162.91a19.47,19.47,0,0,1,.7-5.3,7.52,7.52,0,0,1,2.46-3.88,7.74,7.74,0,0,1,5.12-1.46h6.5a36.5,36.5,0,0,1,8.59.72,5.29,5.29,0,0,1,3.1,1.44h0l-1.55,7.6c-.71,0-2-.24-3.85-.41s-3.92-.29-6.19-.29h-3.1a2.33,2.33,0,0,0-1.89.7,3.54,3.54,0,0,0-.55,2.19h0v8.32a3.71,3.71,0,0,0,.51,2.19,2.18,2.18,0,0,0,1.93.73h2.7a47,47,0,0,0,6.48-.27c1.84-.26,3.1-.32,4-.46h0l3.09,6.84c0,.65-.83,1.31-2.5,2a22.39,22.39,0,0,1-7.51,1Zm22.81,0h-9.28V152.27h7.19l1.94,1.44a8.71,8.71,0,0,1,6.19-2.19h0a12.76,12.76,0,0,1,4.47.75,14,14,0,0,1,3.1,1.64,9.14,9.14,0,0,1,1.54,1.2h0l-2.53,9.35a12.07,12.07,0,0,0-1.91-1.35,21.89,21.89,0,0,0-3.28-1.65,11.11,11.11,0,0,0-4-.74h-.56a3.2,3.2,0,0,0-2.18.68c-.51.46-.76,1.47-.76,3h0Zm37.32,0H385.15A8.51,8.51,0,0,1,380,183.1a7,7,0,0,1-2.46-3.79,21.87,21.87,0,0,1-.65-5.56h0V162.91a19.46,19.46,0,0,1,.68-5.3,7.64,7.64,0,0,1,2.47-3.88,7.81,7.81,0,0,1,5.13-1.46h10.51a11.3,11.3,0,0,1,6.07,1.33,6.72,6.72,0,0,1,2.9,3.73,18.41,18.41,0,0,1,.79,5.58h0v9.2h-8.89a44.61,44.61,0,0,1-6.95-.29,26.51,26.51,0,0,0-3.31-.37h0v1.07c0,1.93.77,2.89,2.43,2.89h1.55c2.71,0,5.22-.08,7.52-.26s4-.33,5.12-.46h0l3.1,6.83a1.83,1.83,0,0,1-.87,1.36,8.06,8.06,0,0,1-3,1.1,29.27,29.27,0,0,1-6.19.48Zm-9.69-20.17v1h9.75v-1a7.29,7.29,0,0,0-.22-2.19c-.12-.4-.48-.61-1.08-.72a21,21,0,0,0-3.09-.13h-3c-1.63,0-2.43.94-2.43,2.86Zm43.34,20.25H418.8a8.43,8.43,0,0,1-5.15-1.35,6.78,6.78,0,0,1-2.46-3.79,20.61,20.61,0,0,1-.67-5.56h0V163a20,20,0,0,1,.79-5.28,7,7,0,0,1,7.6-5.34h10.51a11.21,11.21,0,0,1,6.07,1.33,6.67,6.67,0,0,1,2.89,3.72,17.92,17.92,0,0,1,.79,5.59h0v9.2h-8.88a44.4,44.4,0,0,1-6.94-.29,26,26,0,0,0-3.32-.37h0v1.07c0,1.93.79,2.89,2.44,2.89H424q4.07,0,7.52-.26c2.31-.18,4-.33,5.12-.46h0l3.1,6.83a1.8,1.8,0,0,1-.85,1.36,8.23,8.23,0,0,1-3.1,1.09,29.19,29.19,0,0,1-6.11.49ZM420,164.29v1h9.76v-1a7.57,7.57,0,0,0-.19-2c-.11-.39-.46-.61-1.08-.72a21.25,21.25,0,0,0-3.1-.13h-2.94C420.78,161.42,420,162.36,420,164.29Zm34.18,20.25h-9.4V152.35h7.37l2,1.45a41.21,41.21,0,0,1,5.15-1,42,42,0,0,1,5.67-.44h2.54a6.47,6.47,0,0,1,3.9,1,5.51,5.51,0,0,1,2,2.52,10.67,10.67,0,0,1,.71,3.07c.08.86.12,1.73.13,2.6h0v23h-9.29V164.29c0-1.93-.8-2.87-2.43-2.87h-6.81a2,2,0,0,0-1.24.24,2.06,2.06,0,0,0-.28,1.34h0Zm44.48,0H487.79a8.38,8.38,0,0,1-5.14-1.35,6.85,6.85,0,0,1-2.48-3.79,21.43,21.43,0,0,1-.66-5.56h0V163a19,19,0,0,1,.69-5.3,7.65,7.65,0,0,1,2.46-3.88,7.82,7.82,0,0,1,5.13-1.47h10.52a11.31,11.31,0,0,1,6.07,1.34,6.67,6.67,0,0,1,2.89,3.72,17.92,17.92,0,0,1,.79,5.59h0v9.19h-8.9a45.89,45.89,0,0,1-6.93-.28,24.53,24.53,0,0,0-3.33-.37h0v1.07c0,1.93.79,2.89,2.45,2.89h1.55a68.44,68.44,0,0,0,7.5-.26c2.29-.26,4-.33,5.14-.46h0l3.1,6.83a1.83,1.83,0,0,1-.87,1.36,7.87,7.87,0,0,1-3,1.09,29.27,29.27,0,0,1-6.19.48Zm-9.7-20.25v1h9.75v-1a8,8,0,0,0-.17-2c-.13-.39-.48-.61-1.1-.72a21.25,21.25,0,0,0-3.1-.13h-2.94c-1.62,0-2.44.94-2.44,2.87ZM523,184.54h-9.29V152.35h7.22l1.91,1.45a8.73,8.73,0,0,1,6.2-2.19h0a12.87,12.87,0,0,1,4.45.74,14.05,14.05,0,0,1,3.1,1.65,9.09,9.09,0,0,1,1.55,1.2h0l-2.54,9.35a12.84,12.84,0,0,0-1.91-1.36,22.82,22.82,0,0,0-3.28-1.64,10.9,10.9,0,0,0-4-.74h-.57a3.2,3.2,0,0,0-2.18.68c-.52.46-.76,1.46-.76,3h0Z" fill="#1c4b82"/>
        <path id="text-1" d="M105.45,206.2v1.73c.5-2.35,2.1-3.88,3.83-3.66h0a.91.91,0,0,1,.82.44,1.82,1.82,0,0,1,.28.94,1.7,1.7,0,0,1-.28.92,1.08,1.08,0,0,1-1,.44,2.86,2.86,0,0,0-1.45.42,3,3,0,0,0-1.19,1.18h0a9,9,0,0,0-1,4.38h0v9.68a1.45,1.45,0,0,1-.35,1.09,1,1,0,0,1-.67.35.9.9,0,0,1-.46,0,.86.86,0,0,1-.37-.32h0a1.37,1.37,0,0,1-.33-1h0V206.18a1.81,1.81,0,0,1,.33-1.12,1,1,0,0,1,.82-.44.87.87,0,0,1,.77.44,2,2,0,0,1,.26,1.12Zm20,7.67h0c0,.73-.29,1.12-.88,1.18h-10c-.16,2.92,1,5.66,2.92,6.81h0a4.15,4.15,0,0,0,1.75.35h0a6.15,6.15,0,0,0,4.15-2.19h0a.66.66,0,0,1,1.1,0h0a.75.75,0,0,1,.14.61h0a1.76,1.76,0,0,1-.25,1h0a6,6,0,0,1-5.29,2.78h0a5.53,5.53,0,0,1-4.8-2.73h0a12.57,12.57,0,0,1-2-7.47h0a13.49,13.49,0,0,1,1.68-7.05h0c1.2-2.1,3-3.26,5-3.11h0a5.4,5.4,0,0,1,4.87,2.73h0A12.83,12.83,0,0,1,125.42,213.87Zm-10.83-1h8.63a8.81,8.81,0,0,0-1.27-4.57h0a3.51,3.51,0,0,0-3.09-1.64h0a3.52,3.52,0,0,0-3,1.86h0a9.18,9.18,0,0,0-1.24,4.38Zm21.5,10.16h0c0,1-.87,1.56-2.59,1.56h0a2.86,2.86,0,0,1-2.74-1.49h0a12.21,12.21,0,0,1-.94-5.25h0V207.06h-1.55a.82.82,0,0,1-.68-.38,1.51,1.51,0,0,1-.27-.81h0a1.81,1.81,0,0,1,.22-.81.74.74,0,0,1,.73-.41H130l.15-5.59a1.51,1.51,0,0,1,.41-.94,1,1,0,0,1,.68-.33c.45,0,.84.43.88,1.07v.2h0v5.59h2.51a.73.73,0,0,1,.68.41,1.66,1.66,0,0,1,.23.81h0a1.52,1.52,0,0,1-.23.86.82.82,0,0,1-.68.33h-2.51v9.13a32.4,32.4,0,0,0,.18,4.62,1.89,1.89,0,0,0,.58,1.09,1.52,1.52,0,0,0,1,.31h0l1.42-.15a.69.69,0,0,1,.62.37,1.28,1.28,0,0,1,.2.65Zm12-.3V211.54a6.46,6.46,0,0,0-.95-3.72h0a2.4,2.4,0,0,0-2-1.11,4.23,4.23,0,0,0-1.87.35,3.41,3.41,0,0,0-1.35,1.18h0a7.81,7.81,0,0,0-1.24,4.68h0v9.86a1.46,1.46,0,0,1-.37,1.09,1,1,0,0,1-.79.35h0a.81.81,0,0,1-.72-.39,1.61,1.61,0,0,1-.3-1.05h0V197.62a1.55,1.55,0,0,1,.36-1.08,1.1,1.1,0,0,1,.73-.35h0a1.07,1.07,0,0,1,.77.33,1.55,1.55,0,0,1,.32,1.1h0v10.46a5.12,5.12,0,0,1,1.89-2.8h0a4.37,4.37,0,0,1,2.54-.92,4.78,4.78,0,0,1,2.12.44,5.56,5.56,0,0,1,1.55,1.27h0a9.58,9.58,0,0,1,1.45,5.76h0v10.95a1.46,1.46,0,0,1-.37,1.09,1.12,1.12,0,0,1-.79.35h0a1,1,0,0,1-.77-.39,1.59,1.59,0,0,1-.33-1.05Zm9.14-24.94h0a2.1,2.1,0,0,1-.4,1.33,1.47,1.47,0,0,1-2.26,0,2.16,2.16,0,0,1-.4-1.33h0a2,2,0,0,1,.4-1.23,1.29,1.29,0,0,1,1.15-.53,1.32,1.32,0,0,1,1.13.53,1.84,1.84,0,0,1,.43,1.23Zm-2.63,24.85v-16.4a1.86,1.86,0,0,1,.37-1.21,1.1,1.1,0,0,1,1.13-.43,2.25,2.25,0,0,1,.36.39h0a1.43,1.43,0,0,1,.4,1.14h0v16.4a1.64,1.64,0,0,1-.35,1.14,1.08,1.08,0,0,1-.81.39h0a.94.94,0,0,1-.76-.39,1.7,1.7,0,0,1-.34-1.14Zm6.56,0V206.05a1.57,1.57,0,0,1,.38-1.07.92.92,0,0,1,.72-.42h0c.42-.07.82.26,1,.81a8.51,8.51,0,0,1,.11,2.47h0a5.05,5.05,0,0,1,1.9-2.67h0a4.06,4.06,0,0,1,2.52-1,4.85,4.85,0,0,1,2.14.43,5.29,5.29,0,0,1,1.55,1.38h0a9.53,9.53,0,0,1,1.45,5.76h0v11a1.49,1.49,0,0,1-.37,1.1,1.16,1.16,0,0,1-.79.35h0a1,1,0,0,1-.76-.4,1.5,1.5,0,0,1-.32-1h0V211.59a6.29,6.29,0,0,0-1-3.72h0a2.66,2.66,0,0,0-2.19-1.23h0a3.86,3.86,0,0,0-3,1.44h0a7.61,7.61,0,0,0-1.24,4.73h0v9.9a1.54,1.54,0,0,1-.36,1.1,1.13,1.13,0,0,1-.8.35h0a.88.88,0,0,1-.73-.4,1.63,1.63,0,0,1-.29-1Zm25.25.94-6.86-10v9a1.6,1.6,0,0,1-.34,1.14.91.91,0,0,1-1.51,0,1.72,1.72,0,0,1-.33-1.14h0v-25a1.73,1.73,0,0,1,.33-1.18.88.88,0,0,1,.66-.35h.53a.7.7,0,0,1,.37.3h0a1.89,1.89,0,0,1,.29,1.19h0v14.91l6.32-7.49a.88.88,0,0,1,.68-.5h0a.84.84,0,0,1,.71.41,1.2,1.2,0,0,1,.31.77h0a1.38,1.38,0,0,1-.29,1h0l-5.39,6.4,6.19,8.75a1.34,1.34,0,0,1,.2.75,1.74,1.74,0,0,1-.08.68,1.48,1.48,0,0,1-.27.44h0a1,1,0,0,1-.73.41,1,1,0,0,1-.73-.5Zm16.9-9.85h0c0,.73-.29,1.12-.88,1.18h-10c-.16,2.92,1,5.66,2.91,6.81h0a4,4,0,0,0,1.75.35h0a6.11,6.11,0,0,0,4.15-2.19h0a.66.66,0,0,1,1.1,0h0a.79.79,0,0,1,.14.61h0a1.74,1.74,0,0,1-.25,1h0a6.07,6.07,0,0,1-5.29,2.79h0a5.54,5.54,0,0,1-4.8-2.74h0a12.57,12.57,0,0,1-2.05-7.47h0a13.49,13.49,0,0,1,1.68-7.05h0c1.2-2.1,3-3.26,4.95-3.11h0a5.4,5.4,0,0,1,4.89,2.74h0a13,13,0,0,1,1.72,7.14Zm-10.83-.94h8.63a9.06,9.06,0,0,0-1.27-4.58h0a3.51,3.51,0,0,0-3.09-1.64h0a3.56,3.56,0,0,0-3,1.86h0a9,9,0,0,0-1.24,4.38Zm24,9.85V220.9c-1.09,2.34-3,3.73-5,3.65h0c-1.77.08-3.45-1.12-4.44-3.19h0a16.3,16.3,0,0,1-1.38-7h0q0-6.9,3.24-9.29h0a3.62,3.62,0,0,1,2.21-.87,7.12,7.12,0,0,1,1.83.19,3.91,3.91,0,0,1,1.39.68h0a6.14,6.14,0,0,1,2.1,2.67h0v-10.2a1.42,1.42,0,0,1,.38-1.09,1.18,1.18,0,0,1,.8-.33h0a1,1,0,0,1,.76.33,1.51,1.51,0,0,1,.32,1.09h0v25.16a1.54,1.54,0,0,1-.35,1.1,1,1,0,0,1-.67.35,1.29,1.29,0,0,1-.48,0,.8.8,0,0,1-.38-.33h0a1.37,1.37,0,0,1-.38-1Zm-4.52-.57h0q4.47,0,4.46-8.08h0c0-3.48-.74-5.74-2.23-6.81h0a3.22,3.22,0,0,0-2-.61A3.39,3.39,0,0,0,209,209h0a12.18,12.18,0,0,0-.91,5.1h0a11.74,11.74,0,0,0,1.55,6.75h0a2.7,2.7,0,0,0,2.43,1.38Z" fill="#1c4b82"/>
      </g>
      <g>
        <path d="M62.57,192.21a36.14,36.14,0,0,1-4.06-7.05c-1.11-2.72-1.67-6.33-3.81-7.91-2.77-2-5.41,1.69-7.83,3.11a3.62,3.62,0,0,1-3.17.68c-.65-.26-1.26-1.29-1.94-1.16a1.42,1.42,0,0,0-.85,1.61,1.69,1.69,0,0,0,.3.82A16.88,16.88,0,0,1,44.87,190a13.09,13.09,0,0,0,3.66,7.71c2.8,2.39,5.57.13,8.09-1.88a4.5,4.5,0,0,1,4.46-1.52c.53.27,1,.68,1.55.16a1.88,1.88,0,0,0,.19-2,1.31,1.31,0,0,0-.19-.27C62,191.4,62.81,192.47,62.57,192.21Zm-5.73.26a16.69,16.69,0,0,1-5.08,3.46c-1.58.21-3.1-.94-3.85-2.93-1.27-2.7-2.37-7.95,0-10.14a15.22,15.22,0,0,1,4.44-3.24c1.55-.57,2.48,1.29,3.1,3.06.4,1.12.72,2.19,1.14,3.4.17.41,1.07,3,1.38,3,1,1.51-.23,2.82-1.1,3.41Z" fill="#1c4b82"/>
        <path d="M93.52,122.68c-2,0-2,2.7-2.24,4.73a79.88,79.88,0,0,1-1.55,9.22,61.76,61.76,0,0,1-4.24,12.44c-1.55,3.44-3.9,8.08-7.17,8.08-4.1,0-7.07-5.43-11.3-4.66a6,6,0,0,0-3.6,2.19c-.22.26-.42.54-.62.83-.57.81-.56,1-1.35.74a16.23,16.23,0,0,0-11.9-.55l-1,.44a13.7,13.7,0,0,0-.81-1.14,10.85,10.85,0,0,0-2-1.92,6.06,6.06,0,0,0-5.59-1c-1.79.59-3.25,2.3-5,2.94a9.15,9.15,0,0,1-5.76,0,11.64,11.64,0,0,1-5.79-5.48,45.53,45.53,0,0,1-4.81-17.41c-.17-1.39-.27-2.79-.33-4.2,0-1.56-.94-2.8-2-2.76s-2,1.33-2,2.89v41.21c0,5.46,2.49,10.29,6.19,11.85-5.28,5.54-7.41,14.3-8.37,23.19a95.48,95.48,0,0,0-.11,10v18.54c0,2.85-.71,8.22,2.29,8.22H41.86c1.37,0,1.78-1.6,2.46-3a16,16,0,0,1,6.47-6.9,8.83,8.83,0,0,1,4.64-.57c.84,0,1.13,1.07,1.69,1.91a21.35,21.35,0,0,0,3.4,4.07c2.95,2.74,6.67,3.21,9.91,1.25,1-.55,2.77-2.85,3.67-2.41a10.13,10.13,0,0,0,6.08,1.14c3.35-.64,6.43-3,8.67-6.57a19.77,19.77,0,0,0,3.62-11.32,36,36,0,0,0-3.1-12.68c-1.33-3.24-3-6.18-4.39-9.37a74.67,74.67,0,0,1-4.1-12,17.08,17.08,0,0,1-.68-4c0-1.56,2.55-1,3.35-1.08,3.44.12,6.76-1.66,9.29-4.95a16.43,16.43,0,0,0,2.57-9.24v-33.3c0-2.48.84-9.31-1.92-9.46C92.47,122.68,94.59,122.68,93.52,122.68ZM82.69,202.13a87.36,87.36,0,0,1,3.68,8c1.15,3,2.42,6.57,2.07,10.1a14.55,14.55,0,0,1-4.64,8.6,7.15,7.15,0,0,1-9.12.92c2.33-3.83,3.64-8.56,1.89-13.33-1.41-3.83-4.53-8.76-7.94-8.08-3.09.63-5.62,5.71-3.28,9.57,2.73,4.38,5.93-.53,7.45-4,1.75,2.47,3.25,5.89,2.38,9.44a19.12,19.12,0,0,1-3.71,7,7.11,7.11,0,0,1-5.61,3.16,9.15,9.15,0,0,1-5.93-4.86c-.58-.9-1-2-1.64-2.87-.54-2-1.14-3.92-1.81-5.83-1-2.93-2.6-7.42-5.43-6.9a2.7,2.7,0,0,0-1.92,1.62,1.66,1.66,0,0,0,.53,1.84.7.7,0,0,0,.37.11c.51,0,.83-.65,1.33-.79,2.31-.65,4.06,7,4.64,9.16a15,15,0,0,0-4.64,0,16.3,16.3,0,0,0-4.64,2.69,21.58,21.58,0,0,0-5.1,6.18c-.15.26-.6,1.46-.82,1.46H16.19c-.12,0,0-25.31,0-27.81a44,44,0,0,1,3-15.94,18.31,18.31,0,0,1,6.67-8.36c1.13-.75,3.59-1.14,4.38-2.63a2.89,2.89,0,0,0-2.18-4.51H23.55c-2.76.08-5.05-3-5.11-6.92V148.76c3.48,8.76,9.9,13.89,17,11.87-.1,1-.52,5.3.48,5.72s1.44-4.38,1.64-5.17A2.85,2.85,0,0,1,39,159a6.14,6.14,0,0,1,2.65-1.49,4.43,4.43,0,0,1,4,2.63c.28.46-1.27,2.19-1.54,2.69-.65,1.05-1.3,2.19-1.92,3.2a27.33,27.33,0,0,0-1.43,2.78c-.45.94.22,1.53.81,1.12a9.67,9.67,0,0,0,1.45-2c.67-.87,1.38-1.71,2.09-2.49a15.39,15.39,0,0,1,4.32-3.66c7.15-3.55,14.89.83,20.43,7.36a30.34,30.34,0,0,1,5.34,9.68c1.16,3.65,1.84,7.51,2.94,11.19a75,75,0,0,0,4.57,12.08Zm-11.41,10c-.74,1.73-2.88,6.57-4.43,3.88a3.35,3.35,0,0,1,.32-3.63,1.34,1.34,0,0,1,.21-.2,2.48,2.48,0,0,1,3.9,0c-.67,1.51,0-.2,0-.11ZM91.4,166.76c-.5,3.29-2.32,5.86-4.64,6.57-2.91,1.14-7.87-.59-9.82,3.46A41.62,41.62,0,0,0,72.78,168,27.79,27.79,0,0,0,65,160.26c1.12-2,3-2.56,4.65-1.42,2.86,1.88,5.55,4.27,8.83,4,6.19-.4,10.34-10,12.74-17.1Z" fill="#1c4b82"/>
      </g>
    </g>
  </g>
</svg>
