<svg viewBox="0 0 640 400" data-background-color="#ffffff" preserveAspectRatio="xMidYMid meet" height="400" width="550" x="0" y="-27.5"><rect width="640" height="400" x="0" y="0" opacity="1" fill="#ffffff" data-fill-palette-color="background" id="background"></rect><g id="tight-bounds" transform="matrix(1,0,0,1,122.24000000000001,92.60807770966525)"><svg viewBox="0 0 395.52 214.7838445806695" height="214.7838445806695" width="395.52"><g><svg viewBox="0 0 395.52 214.7838445806695" height="214.7838445806695" width="395.52"><g transform="matrix(1,0,0,1,0,129.1896795944877)"><svg viewBox="0 0 395.52 85.59416498618181" height="85.59416498618181" width="395.52"><g><svg viewBox="0 0 395.52 85.59416498618181" height="85.59416498618181" width="395.52"><g><svg viewBox="0 0 395.52 46.16540259740259" height="46.16540259740259" width="395.52"><g transform="matrix(1,0,0,1,0,0)"><svg width="395.52" viewBox="2 -35.4 307.97 35.949999999999996" height="46.16540259740259" data-palette-color="#085f63"><path d="M20.75-24.4L20.65-19.85Q14.75-20.65 12.1-20.65 9.45-20.65 8.43-20.03 7.4-19.4 7.4-18.05 7.4-16.7 8.53-16.15 9.65-15.6 13.83-14.88 18-14.15 19.75-12.6 21.5-11.05 21.5-7.1 21.5-3.15 18.98-1.3 16.45 0.55 11.6 0.55L11.6 0.55Q8.55 0.55 3.9-0.3L3.9-0.3 2.35-0.55 2.55-5.1Q8.55-4.3 11.2-4.3 13.85-4.3 14.98-4.95 16.1-5.6 16.1-7.1 16.1-8.6 15.03-9.18 13.95-9.75 9.88-10.43 5.8-11.1 3.9-12.55 2-14 2-17.85 2-21.7 4.63-23.6 7.25-25.5 11.35-25.5L11.35-25.5Q14.55-25.5 19.2-24.7L19.2-24.7 20.75-24.4ZM40.2-25L40.2-20.35 33.3-20.35 33.3-9.35Q33.3-6.3 33.75-5.3 34.2-4.3 36.05-4.3L36.05-4.3 40.15-4.45 40.4-0.1Q37.05 0.55 35.3 0.55L35.3 0.55Q31.05 0.55 29.47-1.4 27.9-3.35 27.9-8.75L27.9-8.75 27.9-20.35 24.7-20.35 24.7-25 27.9-25 27.9-32.25 33.3-32.25 33.3-25 40.2-25ZM46.02-22.3Q48.6-25.55 54.6-25.55 60.6-25.55 63.17-22.3 65.75-19.05 65.75-12.55 65.75-6.05 63.25-2.75 60.75 0.55 54.6 0.55 48.45 0.55 45.95-2.75 43.45-6.05 43.45-12.55 43.45-19.05 46.02-22.3ZM50.1-6.05Q51.25-4.05 54.6-4.05 57.95-4.05 59.1-6.05 60.25-8.05 60.25-12.6 60.25-17.15 59.02-19.05 57.8-20.95 54.6-20.95 51.4-20.95 50.17-19.05 48.95-17.15 48.95-12.6 48.95-8.05 50.1-6.05ZM80.49-25.55L80.49-25.55Q83.14-25.55 86.74-24.85L86.74-24.85 87.99-24.6 87.79-20.3Q83.84-20.7 81.94-20.7L81.94-20.7Q78.14-20.7 76.84-19 75.54-17.3 75.54-12.6 75.54-7.9 76.79-6.1 78.04-4.3 81.99-4.3L81.99-4.3 87.84-4.7 87.99-0.35Q82.94 0.55 80.39 0.55L80.39 0.55Q74.69 0.55 72.37-2.53 70.04-5.6 70.04-12.6 70.04-19.6 72.49-22.58 74.94-25.55 80.49-25.55ZM98.69-10.2L98.69 0 93.24 0 93.24-35.4 98.69-35.4 98.69-14.95 101.79-15.25 107.69-25 113.79-25 106.59-13.3 114.19 0 108.04 0 101.94-10.55 98.69-10.2ZM146.63-24.4L146.53-19.85Q140.63-20.65 137.99-20.65 135.34-20.65 134.31-20.03 133.28-19.4 133.28-18.05 133.28-16.7 134.41-16.15 135.53-15.6 139.71-14.88 143.88-14.15 145.63-12.6 147.38-11.05 147.38-7.1 147.38-3.15 144.86-1.3 142.34 0.55 137.49 0.55L137.49 0.55Q134.44 0.55 129.78-0.3L129.78-0.3 128.24-0.55 128.44-5.1Q134.44-4.3 137.09-4.3 139.74-4.3 140.86-4.95 141.99-5.6 141.99-7.1 141.99-8.6 140.91-9.18 139.84-9.75 135.76-10.43 131.69-11.1 129.78-12.55 127.89-14 127.89-17.85 127.89-21.7 130.51-23.6 133.13-25.5 137.24-25.5L137.24-25.5Q140.44-25.5 145.09-24.7L145.09-24.7 146.63-24.4ZM161.98-25.55L161.98-25.55Q164.63-25.55 168.23-24.85L168.23-24.85 169.48-24.6 169.28-20.3Q165.33-20.7 163.43-20.7L163.43-20.7Q159.63-20.7 158.33-19 157.03-17.3 157.03-12.6 157.03-7.9 158.28-6.1 159.53-4.3 163.48-4.3L163.48-4.3 169.33-4.7 169.48-0.35Q164.43 0.55 161.88 0.55L161.88 0.55Q156.18 0.55 153.86-2.53 151.53-5.6 151.53-12.6 151.53-19.6 153.98-22.58 156.43-25.55 161.98-25.55ZM180.18 0L174.73 0 174.73-25 180.13-25 180.13-22Q184.38-24.75 188.63-25.55L188.63-25.55 188.63-20.1Q184.33-19.25 181.28-17.9L181.28-17.9 180.18-17.45 180.18 0ZM210.38-4.5L210.38-4.5 211.78-4.65 211.88-0.6Q206.18 0.55 201.78 0.55L201.78 0.55Q196.23 0.55 193.8-2.5 191.38-5.55 191.38-12.25L191.38-12.25Q191.38-25.55 202.23-25.55L202.23-25.55Q212.73-25.55 212.73-14.1L212.73-14.1 212.38-10.2 196.88-10.2Q196.93-7.1 198.23-5.65 199.53-4.2 203.08-4.2 206.63-4.2 210.38-4.5ZM196.83-14.4L207.38-14.4Q207.38-18.1 206.2-19.58 205.03-21.05 202.23-21.05 199.43-21.05 198.15-19.5 196.88-17.95 196.83-14.4L196.83-14.4ZM235.78-4.5L235.78-4.5 237.18-4.65 237.28-0.6Q231.58 0.55 227.18 0.55L227.18 0.55Q221.63 0.55 219.2-2.5 216.78-5.55 216.78-12.25L216.78-12.25Q216.78-25.55 227.63-25.55L227.63-25.55Q238.13-25.55 238.13-14.1L238.13-14.1 237.78-10.2 222.28-10.2Q222.33-7.1 223.63-5.65 224.93-4.2 228.48-4.2 232.03-4.2 235.78-4.5ZM222.23-14.4L232.78-14.4Q232.78-18.1 231.6-19.58 230.43-21.05 227.63-21.05 224.83-21.05 223.55-19.5 222.28-17.95 222.23-14.4L222.23-14.4ZM248.82-19.4L248.82 0 243.37 0 243.37-25 248.77-25 248.77-23.45Q252.42-25.55 255.67-25.55L255.67-25.55Q260.67-25.55 262.5-22.73 264.32-19.9 264.32-13.4L264.32-13.4 264.32 0 258.92 0 258.92-13.25Q258.92-17.3 258.05-19 257.17-20.7 254.47-20.7L254.47-20.7Q251.92-20.7 249.57-19.7L249.57-19.7 248.82-19.4ZM288.47-4.5L288.47-4.5 289.87-4.65 289.97-0.6Q284.27 0.55 279.87 0.55L279.87 0.55Q274.32 0.55 271.9-2.5 269.47-5.55 269.47-12.25L269.47-12.25Q269.47-25.55 280.32-25.55L280.32-25.55Q290.82-25.55 290.82-14.1L290.82-14.1 290.47-10.2 274.97-10.2Q275.02-7.1 276.32-5.65 277.62-4.2 281.17-4.2 284.72-4.2 288.47-4.5ZM274.92-14.4L285.47-14.4Q285.47-18.1 284.3-19.58 283.12-21.05 280.32-21.05 277.52-21.05 276.25-19.5 274.97-17.95 274.92-14.4L274.92-14.4ZM301.52 0L296.07 0 296.07-25 301.47-25 301.47-22Q305.72-24.75 309.97-25.55L309.97-25.55 309.97-20.1Q305.67-19.25 302.62-17.9L302.62-17.9 301.52-17.45 301.52 0Z" opacity="1" transform="matrix(1,0,0,1,0,0)" fill="#085f63" class="undefined-text-0" data-fill-palette-color="primary" id="text-0"></path></svg></g></svg></g><g transform="matrix(1,0,0,1,124.38086397275733,57.063946180987)"><svg viewBox="0 0 146.75827205448533 28.530218805194803" height="28.530218805194803" width="146.75827205448533"><g transform="matrix(1,0,0,1,0,0)"><svg width="146.75827205448533" viewBox="3.81 -37.5 195.39 37.99" height="28.530218805194803" data-palette-color="#49beb7"><path d="M6.74-22.05L6.74 0 3.81 0 3.81-26.42 6.67-26.42 6.74-22.05ZM16.09-26.61L16.02-23.95Q15.53-24.02 15.06-24.07 14.6-24.12 14.06-24.12L14.06-24.12Q11.55-24.12 9.84-22.9 8.13-21.68 7.24-19.63 6.35-17.58 6.27-15.04L6.27-15.04 5.18-14.65Q5.18-18.09 6.14-20.86 7.1-23.63 9.09-25.27 11.08-26.9 14.16-26.9L14.16-26.9Q14.72-26.9 15.27-26.82 15.82-26.73 16.09-26.61L16.09-26.61ZM30.86 0.49L30.86 0.49Q27.41 0.49 24.74-1.18 22.07-2.86 20.54-5.77 19.02-8.69 19.02-12.48L19.02-12.48 19.02-13.53Q19.02-17.6 20.59-20.61 22.17-23.61 24.74-25.26 27.32-26.9 30.32-26.9L30.32-26.9Q33.69-26.9 36.03-25.35 38.38-23.8 39.58-21.07 40.79-18.33 40.79-14.82L40.79-14.82 40.79-13.04 20.8-13.04 20.8-15.5 37.86-15.5 37.86-15.84Q37.81-18.07 36.97-20.02 36.13-21.97 34.47-23.21 32.81-24.44 30.32-24.44L30.32-24.44Q27.85-24.44 25.95-23.05 24.05-21.66 23-19.2 21.95-16.75 21.95-13.53L21.95-13.53 21.95-12.48Q21.95-9.55 23.08-7.18 24.22-4.81 26.27-3.39 28.32-1.98 30.98-1.98L30.98-1.98Q33.32-1.98 35.13-2.84 36.94-3.71 38.38-5.59L38.38-5.59 40.23-4.2Q38.94-2.27 36.68-0.89 34.42 0.49 30.86 0.49ZM56.51-26.42L56.51-24.02 43.26-24.02 43.26-26.42 56.51-26.42ZM48.09-33.2L51.02-33.2 51.02-6.42Q51.02-4.59 51.51-3.65 52-2.71 52.79-2.39 53.58-2.08 54.49-2.08L54.49-2.08Q55.15-2.08 55.74-2.16 56.34-2.25 56.83-2.32L56.83-2.32 56.95 0.1Q56.42 0.27 55.56 0.38 54.71 0.49 53.85 0.49L53.85 0.49Q52.17 0.49 50.87-0.13 49.58-0.76 48.84-2.28 48.09-3.81 48.09-6.45L48.09-6.45 48.09-33.2ZM65.5-37.5L65.5 0 62.57 0 62.57-37.5 65.5-37.5ZM64.86-14.87L63.54-15.6Q63.74-18.7 65.08-21.26 66.42-23.83 68.73-25.37 71.04-26.9 74.06-26.9L74.06-26.9Q76.73-26.9 78.61-25.93 80.49-24.95 81.5-22.81 82.51-20.68 82.51-17.19L82.51-17.19 82.51 0 79.58 0 79.58-17.21Q79.58-19.95 78.83-21.51 78.07-23.07 76.68-23.73 75.29-24.39 73.38-24.39L73.38-24.39Q71.28-24.39 69.71-23.47 68.13-22.56 67.07-21.11 66.01-19.65 65.45-17.99 64.89-16.33 64.86-14.87L64.86-14.87ZM93.28-26.42L93.28 0 90.37 0 90.37-26.42 93.28-26.42ZM89.86-34.06L89.86-34.06Q89.86-34.89 90.38-35.46 90.91-36.04 91.84-36.04L91.84-36.04Q92.79-36.04 93.32-35.46 93.86-34.89 93.86-34.06L93.86-34.06Q93.86-33.25 93.32-32.69 92.79-32.13 91.84-32.13L91.84-32.13Q90.91-32.13 90.38-32.69 89.86-33.25 89.86-34.06ZM104.16-20.78L104.16 0 101.23 0 101.23-26.42 104.04-26.42 104.16-20.78ZM103.53-14.87L102.21-15.6Q102.4-18.7 103.75-21.26 105.09-23.83 107.4-25.37 109.7-26.9 112.73-26.9L112.73-26.9Q115.39-26.9 117.27-25.93 119.15-24.95 120.17-22.81 121.18-20.68 121.18-17.19L121.18-17.19 121.18 0 118.25 0 118.25-17.21Q118.25-19.95 117.49-21.51 116.74-23.07 115.34-23.73 113.95-24.39 112.05-24.39L112.05-24.39Q109.95-24.39 108.37-23.47 106.8-22.56 105.74-21.11 104.68-19.65 104.11-17.99 103.55-16.33 103.53-14.87L103.53-14.87ZM131.65-37.5L131.65 0 128.74 0 128.74-37.5 131.65-37.5ZM148.23-26.42L135.9-14.18 130.62-9.11 130.19-11.94 134.43-16.48 144.52-26.42 148.23-26.42ZM145.69 0L134.65-13.75 136.26-16.24 149.2 0 145.69 0ZM163.46 0.49L163.46 0.49Q160.02 0.49 157.34-1.18 154.67-2.86 153.14-5.77 151.62-8.69 151.62-12.48L151.62-12.48 151.62-13.53Q151.62-17.6 153.19-20.61 154.77-23.61 157.34-25.26 159.92-26.9 162.92-26.9L162.92-26.9Q166.29-26.9 168.63-25.35 170.98-23.8 172.19-21.07 173.4-18.33 173.4-14.82L173.4-14.82 173.4-13.04 153.4-13.04 153.4-15.5 170.47-15.5 170.47-15.84Q170.42-18.07 169.57-20.02 168.73-21.97 167.07-23.21 165.41-24.44 162.92-24.44L162.92-24.44Q160.46-24.44 158.55-23.05 156.65-21.66 155.6-19.2 154.55-16.75 154.55-13.53L154.55-13.53 154.55-12.48Q154.55-9.55 155.68-7.18 156.82-4.81 158.87-3.39 160.92-1.98 163.58-1.98L163.58-1.98Q165.92-1.98 167.73-2.84 169.54-3.71 170.98-5.59L170.98-5.59 172.83-4.2Q171.54-2.27 169.28-0.89 167.02 0.49 163.46 0.49ZM196.27-5.13L196.27-37.5 199.2-37.5 199.2 0 196.46 0 196.27-5.13ZM177.93-12.94L177.93-13.45Q177.93-17.55 179.18-20.58 180.42-23.61 182.71-25.26 184.99-26.9 188.14-26.9L188.14-26.9Q191.22-26.9 193.36-25.57 195.51-24.24 196.79-21.86 198.08-19.48 198.54-16.28L198.54-16.28 198.54-9.67Q198.15-6.74 196.88-4.44 195.61-2.15 193.42-0.83 191.24 0.49 188.09 0.49L188.09 0.49Q184.97 0.49 182.68-1.22 180.4-2.93 179.17-5.96 177.93-8.98 177.93-12.94L177.93-12.94ZM180.86-13.45L180.86-12.94Q180.86-9.86 181.69-7.41 182.52-4.96 184.25-3.5 185.97-2.05 188.63-2.05L188.63-2.05Q191.14-2.05 192.85-3.02 194.56-3.98 195.59-5.58 196.61-7.18 197.07-9.11L197.07-9.11 197.07-16.72Q196.78-17.99 196.22-19.34 195.66-20.68 194.69-21.81 193.73-22.95 192.25-23.66 190.78-24.37 188.68-24.37L188.68-24.37Q185.99-24.37 184.26-22.92 182.52-21.48 181.69-19.01 180.86-16.53 180.86-13.45L180.86-13.45Z" opacity="1" transform="matrix(1,0,0,1,0,0)" fill="#49beb7" class="undefined-text-1" data-fill-palette-color="secondary" id="text-1"></path></svg></g></svg></g></svg></g></svg></g><g transform="matrix(1,0,0,1,138.61443199454837,0)"><svg viewBox="0 0 118.29113601090324 118.29113601090327" height="118.29113601090327" width="118.29113601090324"><g><svg xmlns="http://www.w3.org/2000/svg" version="1.1" xmlns:xlink="http://www.w3.org/1999/xlink" xmlns:svgjs="http://svgjs.com/svgjs"></svg></g><g id="icon-0"><svg viewBox="0 0 118.29113601090324 118.29113601090327" height="118.29113601090327" width="118.29113601090324"><g><path d="M35.487 118.291c-19.599 0-35.487-15.888-35.487-35.487v-47.317c0-19.599 15.888-35.487 35.487-35.487h47.317c19.599 0 35.487 15.888 35.487 35.487v47.317c0 19.599-15.888 35.487-35.487 35.487z" fill="#49beb7" data-fill-palette-color="accent"></path></g><g transform="matrix(1,0,0,1,16.15048223081002,23.658227202180655)"><svg viewBox="0 0 85.9901715492832 70.97468160654196" height="70.97468160654196" width="85.9901715492832"><g><svg xmlns="http://www.w3.org/2000/svg" xmlns:xlink="http://www.w3.org/1999/xlink" version="1.1" x="0" y="0" viewBox="18.267911467951638 23.80782810602365 63.46420787426099 52.38217189397635" enable-background="new 0 0 100 100" xml:space="preserve" height="70.97468160654196" width="85.9901715492832" class="icon-symbol-0" fill="#ffffff" data-fill-palette-color="quaternary" id="symbol-0"><path fill="#ffffff" d="M49.488 52.2" data-fill-palette-color="quaternary"></path><path fill="#ffffff" d="M50.102 59.298h-0.059c-1.625 0-3.09-0.168-4.184-0.477-1.945-0.543-2.355-1.453-2.355-2.121 0-2.23 0.223-3.941 1.309-5.043 0.965-0.977 2.48-1.375 5.234-1.375s4.27 0.398 5.234 1.375c1.09 1.098 1.316 2.809 1.316 5.043C56.598 59.11 51.625 59.298 50.102 59.298zM50.047 51.884c-2.25 0-3.473 0.27-4.094 0.898-0.602 0.609-0.848 1.746-0.848 3.918 0.137 0.348 1.887 0.996 4.883 0.996h0.113c3.004 0 4.758-0.648 4.898-1.008-0.004-2.16-0.25-3.297-0.855-3.906C53.52 52.153 52.297 51.884 50.047 51.884z" data-fill-palette-color="quaternary"></path><g fill="#ffffff" data-fill-palette-color="quaternary"><path fill="#ffffff" d="M48.836 54.325c0-0.773-0.625-1.398-1.398-1.398-0.766 0-1.398 0.625-1.398 1.398s0.633 1.398 1.398 1.398C48.211 55.724 48.836 55.099 48.836 54.325z" data-fill-palette-color="quaternary"></path><path fill="#ffffff" d="M54.055 54.325c0-0.773-0.625-1.398-1.398-1.398-0.766 0-1.398 0.625-1.398 1.398s0.633 1.398 1.398 1.398C53.43 55.724 54.055 55.099 54.055 54.325z" data-fill-palette-color="quaternary"></path></g><path fill="#ffffff" d="M58.473 37.395c-0.383-0.234-0.867-0.121-1.102 0.258-2.844 4.586-4.496 4.883-5.047 4.828-1.004-0.129-1.508-1.645-1.512-1.66-0.004-0.012-0.02-0.016-0.023-0.027-0.039-0.105-0.133-0.164-0.211-0.246-0.066-0.07-0.109-0.156-0.195-0.199-0.012-0.004-0.012-0.02-0.023-0.023-0.09-0.035-0.18 0-0.273 0-0.094-0.008-0.184-0.059-0.277-0.027-0.012 0.004-0.016 0.02-0.027 0.023-0.082 0.027-0.129 0.109-0.199 0.164-0.094 0.074-0.195 0.133-0.246 0.238-0.004 0.012-0.02 0.012-0.023 0.023-0.008 0.016-0.652 1.48-1.805 1.559-0.699 0.035-2.395-0.492-4.871-4.641-0.234-0.379-0.723-0.504-1.098-0.277-0.379 0.227-0.504 0.719-0.277 1.098 0.82 1.375 1.613 2.398 2.391 3.246-1.102 0.18-1.961 1.098-1.961 2.25 0 1.285 1.043 2.332 2.324 2.332 1.285 0 2.332-1.047 2.332-2.332 0-0.117-0.051-0.215-0.066-0.328 0.375 0.129 0.75 0.254 1.121 0.254 0.074 0 0.148-0.004 0.227-0.008 1.051-0.074 1.816-0.668 2.332-1.262 0.453 0.641 1.145 1.297 2.156 1.43 0.117 0.016 0.238 0.023 0.363 0.023 0.426 0 0.863-0.125 1.309-0.312-0.008 0.07-0.043 0.129-0.043 0.203 0 1.285 1.047 2.332 2.332 2.332 1.281 0 2.324-1.047 2.324-2.332 0-1.188-0.906-2.133-2.059-2.27 0.766-0.859 1.555-1.871 2.387-3.215C58.965 38.122 58.848 37.629 58.473 37.395zM44.016 44.711c-0.398 0-0.723-0.328-0.723-0.73 0-0.398 0.324-0.723 0.723-0.723 0.402 0 0.73 0.324 0.73 0.723C44.746 44.383 44.418 44.711 44.016 44.711zM56.801 43.981c0 0.402-0.324 0.73-0.723 0.73-0.402 0-0.73-0.328-0.73-0.73 0-0.398 0.328-0.723 0.73-0.723C56.477 43.258 56.801 43.583 56.801 43.981z" data-fill-palette-color="quaternary"></path><path fill="#ffffff" d="M81.266 25.059c-0.164-0.738-0.773-1.285-1.582-1.246-0.758 0.012-1.402 0.551-1.547 1.293-0.508 2.594-1.734 4.43-3.746 5.602-5.742 3.359-15.734 0.102-15.836 0.07-0.055-0.02-0.109-0.008-0.164-0.023-2.543-1.066-5.348-1.711-8.34-1.711-2.977 0-5.773 0.637-8.309 1.695-0.098 0.016-0.199 0.004-0.297 0.039-0.098 0.031-10.086 3.289-15.836-0.07-2.012-1.172-3.238-3.008-3.746-5.602-0.145-0.742-0.789-1.281-1.547-1.293-0.922-0.066-1.414 0.508-1.582 1.246-0.992 4.363-0.398 8.047 1.758 10.945 2.625 3.527 6.871 4.926 9.496 5.48l-6.23 3.57c-0.652 0.371-0.957 1.148-0.73 1.867 0.574 1.816 2.414 2.988 4.691 2.988 0.926 0 1.887-0.258 2.848-0.633 0.668 4.915 3.203 8.817 7.195 11.336-2.004 4.035-3.707 9.004-5.047 14.867l3.117 0.711c1.281-5.602 2.895-10.324 4.781-14.129 2.727 1.117 5.863 1.781 9.434 1.781 3.527 0 6.652-0.684 9.379-1.82 1.898 3.699 3.535 8.34 4.852 13.863l3.109-0.742c-1.375-5.773-3.098-10.656-5.117-14.582 3.977-2.535 6.551-6.422 7.25-11.247 0.93 0.355 1.863 0.594 2.762 0.594 2.277 0 4.117-1.172 4.691-2.988 0.227-0.719-0.078-1.496-0.73-1.867l-6.23-3.57c2.625-0.555 6.871-1.953 9.496-5.48C81.664 33.106 82.258 29.422 81.266 25.059zM23.059 34.094c-0.488-0.66-0.867-1.387-1.129-2.176 0.613 0.59 1.305 1.109 2.074 1.559 3.324 1.938 7.539 2.141 11.105 1.809-0.992 1.035-1.844 2.164-2.547 3.387-0.016-0.004-0.031-0.012-0.047-0.012C32.453 38.653 26.094 38.172 23.059 34.094zM30.094 45.883c-0.008 0.059-0.016 0.113-0.023 0.168-1.277 0.676-2.141 0.719-2.727 0.637l2.879-1.648C30.172 45.348 30.133 45.633 30.094 45.883zM50.047 60.642c-10.195 0-16.527-5.359-16.527-13.985 0-7.949 7.414-14.41 16.531-14.41 9.113 0 16.527 6.461 16.527 14.41C66.578 55.153 60.09 60.642 50.047 60.642zM69.93 46.051c-0.008-0.055-0.016-0.109-0.023-0.168-0.039-0.25-0.078-0.535-0.129-0.844l2.879 1.648C72.07 46.77 71.207 46.727 69.93 46.051zM76.949 34.083c-2.957 3.984-9.129 4.547-9.422 4.57-0.703-1.211-1.547-2.328-2.527-3.359 3.543 0.32 7.707 0.102 10.996-1.816 0.77-0.449 1.461-0.969 2.074-1.559C77.809 32.7 77.438 33.426 76.949 34.083z" data-fill-palette-color="quaternary"></path></svg><g></g></g></svg></g></svg></g></svg></g><g></g></svg></g></svg><rect width="395.52" height="214.7838445806695" fill="transparent" stroke="transparent"></rect></g><defs></defs></svg>