<?xml version="1.0" encoding="utf-8"?>
<!-- Generator: Adobe Illustrator 24.1.0, SVG Export Plug-In . SVG Version: 6.00 Build 0)  -->
<svg version="1.1" id="Layer_1" xmlns="http://www.w3.org/2000/svg" xmlns:xlink="http://www.w3.org/1999/xlink" x="0px" y="0px"
	 viewBox="0 0 375 440" style="enable-background:new 0 0 375 440;" xml:space="preserve">
<style type="text/css">
	.st0{fill:url(#SVGID_1_);}
	.st1{fill:url(#SVGID_2_);}
	.st2{fill:url(#SVGID_3_);}
	.st3{font-family:'ArialRoundedMTBold';}
	.st4{font-size:120px;}
	.st5{letter-spacing:2;}
	.st6{letter-spacing:7.1;}
</style>
<g>
	<g id="Layer_1_1_">
		<g id="Layer_1-2">
			<linearGradient id="SVGID_1_" gradientUnits="userSpaceOnUse" x1="141.91" y1="82.96" x2="159.69" y2="82.96">
				<stop  offset="0" style="stop-color:#FFFFFF"/>
				<stop  offset="1" style="stop-color:#70A6D4"/>
			</linearGradient>
			<polygon class="st0" points="159.7,83.5 141.9,78.4 152.6,87.5 			"/>
			
				<image style="overflow:visible;opacity:0.4;enable-background:new    ;" width="354" height="312" xlink:href="FA1303E4.png"  transform="matrix(1 0 0 1 21 0)">
			</image>
			<linearGradient id="SVGID_2_" gradientUnits="userSpaceOnUse" x1="21.42" y1="153.2575" x2="368.43" y2="153.2575">
				<stop  offset="0.4513" style="stop-color:#7B86FF"/>
				<stop  offset="0.467" style="stop-color:#7A8AF9"/>
				<stop  offset="0.5273" style="stop-color:#7597E8"/>
				<stop  offset="0.6023" style="stop-color:#72A0DD"/>
				<stop  offset="0.7076" style="stop-color:#70A5D6"/>
				<stop  offset="1" style="stop-color:#70A6D4"/>
			</linearGradient>
			<path class="st1" d="M368.4,103.3c0,0-45.4,18.6-84.6,0.5S190.9-6.6,123,1.5c-28.8,3.4-64.6,22.9-101.6,44
				c28.9-2.3,59.2-4.8,72.7-4.4c32.5,0.9,42.7,10.4,42.7,10.4c3.4-6.3,13.7-7.8,16-0.7s-8,12.4-8,12.4l9.4-2.8
				c0,0,15.3,8.9,17.4,10.1s2.6,2.4,3.5,7.5s3.2,13.1,3.2,13.1s17.8,13.7,18.9,15.5c1,1.5,0.6,3.5-0.9,4.4l0,0
				c-0.3,0.2-0.5,0.3-0.8,0.4c-2.1,0.5-2.6,1.6-5.6,4s-6.3,4.4-9.6,4.9s-11.3-7.7-16-8.2c0,0-7.1-1.9-9.5,5.4s7.2,12.5,11.5,11.7
				c0,0,0.3,4.6-24.8,1.6c-25.2-3-36.3,4-36.3,4l-66.4,63c0.4,2,0.8,4.2,1.4,6.3c8.8,32,10.8,43.8,3.2,54.8
				c-7.6,11-6.8,17.1-3.3,20.4s4.3,7.3,3,12.9c-0.8,4.4-1.3,8.9-1.3,13.4h54.6c0,0-1-13.9-17.6-20.6s-14.8-18.4-7.3-41.2
				s21-29.6,39.7-35.4s35.8-22.2,43.1-41.8c0,0-8.6,41.3-49.8,52.6c0,0,59,36.9,79.1,54.4s16.1,32.2,16.1,32.2h49.6
				c0,0-6.7-8.4-21.8-17.8s-25.1-21.1-34.9-35.9c-9.7-14.8-24.5-36.2-24.5-48.3s3.4-32.9,3.4-32.9s24,9.8,29.5,20.9
				s17.6,41,32.2,39.7c14.6-1.3,32-10,32-10l0.6-49.6c0,0,7.4-4.4,7.7-9.4s1.7-30.5,1.7-30.5s-34.2-5-53.5-36.1
				C221.8,95.8,272.8,160.7,368.4,103.3z"/>
			<linearGradient id="SVGID_3_" gradientUnits="userSpaceOnUse" x1="258.5" y1="87.315" x2="316.39" y2="87.315">
				<stop  offset="0" style="stop-color:#FFFFFF"/>
				<stop  offset="1" style="stop-color:#70A6D4"/>
			</linearGradient>
			<path class="st2" d="M274.4,97.4c16.3,0,31.8-7.4,42-20.1c0,0-25.4,15.2-57.9,5.7C258.5,82.9,268,93.8,274.4,97.4z"/>
			<g>
				
					<image style="overflow:visible;opacity:0.4;enable-background:new    ;" width="365" height="136" xlink:href="FA1303EB.png"  transform="matrix(1 0 0 1 0 304)">
				</image>
				<text transform="matrix(0.98 0 0 1 0 407.79)" class="st3 st4 st5">G</text>
				<text transform="matrix(0.98 0 0 1 95.7168 407.79)" class="st3 st4 st6">ASS</text>
			</g>
		</g>
	</g>
</g>
</svg>
